<svg width="13" height="22" viewBox="0 0 13 22" fill="none" xmlns="http://www.w3.org/2000/svg">
<path d="M9.53233 10L6.5 13.308L3.46767 10L4.11667 9.292L6.04167 11.381V6.692H6.95833V11.381L8.88333 9.292L9.53233 10ZM4.87842 18.654H8.12158V17.884H4.87842V18.654ZM2.48133 21C2.05906 21 1.70675 20.846 1.42442 20.538C1.14208 20.23 1.00061 19.8457 1 19.385V2.615C1 2.155 1.14147 1.771 1.42442 1.463C1.70736 1.155 2.05967 1.00067 2.48133 1H10.5196C10.9413 1 11.2933 1.15433 11.5756 1.463C11.8579 1.77167 11.9994 2.156 12 2.616V19.385C12 19.845 11.8588 20.2293 11.5765 20.538C11.2942 20.8467 10.9416 21.0007 10.5187 21H2.48133ZM1.91667 16.538V19.384C1.91667 19.538 1.97533 19.6793 2.09267 19.808C2.21 19.9367 2.33925 20.0007 2.48042 20H10.5196C10.6601 20 10.7894 19.936 10.9073 19.808C11.0253 19.68 11.0839 19.5387 11.0833 19.384V16.538H1.91667ZM1.91667 15.538H11.0833V4.5H1.91667V15.538ZM1.91667 3.5H11.0833V2.615C11.0833 2.46167 11.0247 2.32067 10.9073 2.192C10.79 2.06333 10.6604 1.99933 10.5187 2H2.48133C2.34017 2 2.21061 2.064 2.09267 2.192C1.97472 2.32 1.91606 2.46133 1.91667 2.616V3.5Z" fill="#5D5D5D"/>
<path d="M1.91667 16.538V19.384C1.91667 19.538 1.97533 19.6793 2.09267 19.808C2.21 19.9367 2.33925 20.0007 2.48042 20H10.5196C10.6601 20 10.7894 19.936 10.9073 19.808C11.0253 19.68 11.0839 19.5387 11.0833 19.384V16.538H1.91667ZM1.91667 16.538V20M1.91667 3.5H11.0833V2.615C11.0833 2.46167 11.0247 2.32067 10.9073 2.192C10.79 2.06333 10.6604 1.99933 10.5187 2H2.48133C2.34017 2 2.21061 2.064 2.09267 2.192C1.97472 2.32 1.91606 2.46133 1.91667 2.616V3.5ZM1.91667 3.5V2M9.53233 10L6.5 13.308L3.46767 10L4.11667 9.292L6.04167 11.381V6.692H6.95833V11.381L8.88333 9.292L9.53233 10ZM4.87842 18.654H8.12158V17.884H4.87842V18.654ZM2.48133 21C2.05906 21 1.70675 20.846 1.42442 20.538C1.14208 20.23 1.00061 19.8457 1 19.385V2.615C1 2.155 1.14147 1.771 1.42442 1.463C1.70736 1.155 2.05967 1.00067 2.48133 1H10.5196C10.9413 1 11.2933 1.15433 11.5756 1.463C11.8579 1.77167 11.9994 2.156 12 2.616V19.385C12 19.845 11.8588 20.2293 11.5765 20.538C11.2942 20.8467 10.9416 21.0007 10.5187 21H2.48133ZM1.91667 15.538H11.0833V4.5H1.91667V15.538Z" stroke="#5D5D5D" stroke-width="0.5"/>
</svg>
