<?xml version="1.0" encoding="UTF-8"?>
<svg id="Layer_1" data-name="Layer 1" xmlns="http://www.w3.org/2000/svg" xmlns:xlink="http://www.w3.org/1999/xlink" viewBox="0 0 1080 1080">
  <defs>
    <style>
      .cls-1 {
        fill: url(#linear-gradient-2);
      }

      .cls-2 {
        fill: #353535;
        font-family: BellMT, 'Bell MT';
        font-size: 212.62px;
      }

      .cls-3 {
        fill: url(#linear-gradient-3);
      }

      .cls-4 {
        fill: url(#linear-gradient);
      }
    </style>
    <linearGradient id="linear-gradient" x1="222.28" y1="566.69" x2="359.49" y2="566.69" gradientUnits="userSpaceOnUse">
      <stop offset=".34" stop-color="#0085c0"/>
      <stop offset="1" stop-color="#234895"/>
    </linearGradient>
    <linearGradient id="linear-gradient-2" x1="133.95" x2="242.42" xlink:href="#linear-gradient"/>
    <linearGradient id="linear-gradient-3" x1="222.15" y1="472.83" x2="271.29" y2="472.83" xlink:href="#linear-gradient"/>
  </defs>
  <g>
    <path class="cls-4" d="m357.42,600.94c-1.56-3.65-3.95-6.89-6.97-9.46-4.96-4.3-11.47-5.7-17.57-7.57l-.08.06c-1.98-.62-3.92-1.36-5.81-2.23-4.68-2.09-8.86-5.15-12.27-8.97-6.52-7.44-11.37-16.19-14.21-25.67-1.58-6.16-1.62-12.62-.1-18.8.96-4.66.59-9.49-1.07-13.94-1.66-4.45-4.55-8.35-8.32-11.24-7.5-5.33-18.95-7.74-27.25-2.72-5.37,3.54-9.38,8.8-11.36,14.91-1.98,6.12-1.83,12.73.45,18.75,1.77,3.57,4.23,6.76,7.23,9.38,3,2.62,6.5,4.62,10.27,5.89,5.33,1.49,10.58,3.29,15.7,5.39,5.72,3.31,10.59,7.92,14.2,13.45,2.76,3.98,5.13,8.22,7.09,12.65,2.82,5.8,2.05,12.17,1.14,18.4-3.99,1.55-8.25,2.25-12.53,2.04-8.25-.49-16.3-2.75-23.59-6.62-4.59-2.67-8.45-6.42-11.27-10.92-2.21-3.33-5.32-5.96-8.96-7.59-3.64-1.64-7.68-2.21-11.63-1.65-7.72,1.31-15.82,6.88-17.78,14.69-1.06,5.29-.28,10.78,2.21,15.57,2.49,4.79,6.53,8.59,11.46,10.77,3.17,1.06,6.53,1.47,9.86,1.22,3.34-.25,6.59-1.16,9.57-2.67,4.04-2.3,8.21-4.37,12.5-6.18,5.35-1.48,10.97-1.68,16.41-.57,4.03.69,7.99,1.78,11.81,3.24,6.08,2.15,9.77,7.72,13.58,12.59,2.45,3.17,5,5.61,7.96,7.38,3.43,2.59,7.44,4.37,11.77,4.98,6.33.9,12.76-.61,18.03-4.23,3.13-2.14,5.78-4.91,7.77-8.14,1.99-3.23,3.27-6.84,3.77-10.6.22-3.96-.47-7.92-2.03-11.57Z"/>
    <path class="cls-1" d="m233.36,543.44c3-2.62,5.46-5.81,7.23-9.38,2.27-6.02,2.43-12.63.45-18.75-1.98-6.12-5.99-11.38-11.37-14.91-8.29-5.02-19.74-2.61-27.25,2.72-3.78,2.89-6.66,6.78-8.32,11.24-1.66,4.45-2.03,9.29-1.07,13.94,1.52,6.18,1.48,12.64-.1,18.8-2.84,9.48-7.69,18.23-14.21,25.67-3.41,3.82-7.59,6.88-12.27,8.97-1.89.87-3.83,1.62-5.81,2.23l-.08-.06c-6.1,1.86-12.61,3.26-17.57,7.57-3.02,2.57-5.41,5.81-6.97,9.46-1.56,3.65-2.26,7.61-2.03,11.57.5,3.76,1.78,7.37,3.77,10.6,1.99,3.23,4.64,6,7.77,8.14,5.27,3.62,11.71,5.12,18.03,4.23,6.33-.9,12.09-4.13,16.15-9.07,2.64-3.24,4.53-7.04,5.52-11.1,1-4.06,1.07-8.3.23-12.4-.99-7.36-2.77-15.15.61-22.09,1.96-4.43,4.34-8.66,7.09-12.65,3.62-5.53,8.48-10.14,14.2-13.45,5.13-2.1,10.37-3.9,15.7-5.39,3.78-1.27,7.27-3.27,10.27-5.89Z"/>
    <path class="cls-3" d="m229.55,490.4c3.48,3.4,7.88,5.69,12.66,6.58,4.78.89,9.72.35,14.18-1.57,4.47-1.91,8.27-5.11,10.92-9.19,2.65-4.08,4.03-8.85,3.97-13.71-.03-3.22-.7-6.41-1.97-9.38-1.27-2.97-3.11-5.65-5.41-7.9-2.31-2.25-5.03-4.03-8.03-5.23-2.99-1.2-6.19-1.79-9.42-1.75-4.86.05-9.6,1.55-13.61,4.29-4.01,2.75-7.12,6.62-8.93,11.13-1.81,4.51-2.24,9.46-1.24,14.22,1,4.76,3.39,9.11,6.87,12.51Z"/>
  </g>
  <text class="cls-2" transform="translate(381.37 633.79)"><tspan x="0" y="0">ASAB</tspan></text>
</svg>