<svg width="16" height="17" viewBox="0 0 16 17" fill="none" xmlns="http://www.w3.org/2000/svg">
<path d="M5.1488 2.9974L10.1395 6.66406L5.86176 10.3307L10.8525 13.9974M1.58398 2.92406C1.58398 2.09466 1.58398 1.6796 1.83423 1.42146C2.0852 1.16406 2.48945 1.16406 3.2951 1.16406H3.43769C4.24405 1.16406 4.64759 1.16406 4.89855 1.42146C5.1488 1.6796 5.1488 2.0954 5.1488 2.92406V3.07073C5.1488 3.90013 5.1488 4.3152 4.89855 4.57333C4.64759 4.83073 4.24334 4.83073 3.43769 4.83073H3.2951C2.48873 4.83073 2.0852 4.83073 1.83423 4.57333C1.58398 4.3152 1.58398 3.8994 1.58398 3.07073V2.92406ZM10.8525 6.59073C10.8525 5.76133 10.8525 5.34626 11.1035 5.08813C11.353 4.83073 11.7573 4.83073 12.5636 4.83073H12.7062C13.5126 4.83073 13.9161 4.83073 14.1664 5.08813C14.4173 5.34626 14.4173 5.76206 14.4173 6.59073V6.7374C14.4173 7.5668 14.4173 7.98186 14.1664 8.24C13.9168 8.4974 13.5126 8.4974 12.7062 8.4974H12.5636C11.7573 8.4974 11.3537 8.4974 11.1035 8.24C10.8525 7.98186 10.8525 7.56606 10.8525 6.7374V6.59073ZM1.58398 10.2574C1.58398 9.428 1.58398 9.01293 1.83423 8.7548C2.0852 8.4974 2.48945 8.4974 3.2951 8.4974H3.43769C4.24405 8.4974 4.64759 8.4974 4.89855 8.7548C5.1488 9.01366 5.1488 9.42873 5.1488 10.2574V10.4041C5.1488 11.2335 5.1488 11.6485 4.89855 11.9059C4.64759 12.1641 4.24334 12.1641 3.43769 12.1641H3.2951C2.48873 12.1641 2.0852 12.1641 1.83423 11.9059C1.58398 11.6493 1.58398 11.2335 1.58398 10.4041V10.2574ZM10.8525 13.9241C10.8525 13.0947 10.8525 12.6796 11.1035 12.4222C11.353 12.1641 11.7573 12.1641 12.5636 12.1641H12.7062C13.5126 12.1641 13.9161 12.1641 14.1664 12.4222C14.4173 12.6789 14.4173 13.0947 14.4173 13.9241V14.0707C14.4173 14.9001 14.4173 15.3152 14.1664 15.5726C13.9168 15.8307 13.5126 15.8307 12.7062 15.8307H12.5636C11.7573 15.8307 11.3537 15.8307 11.1035 15.5726C10.8525 15.3159 10.8525 14.9001 10.8525 14.0707V13.9241Z" stroke="#234895" stroke-width="1.5" stroke-linecap="round" stroke-linejoin="round"/>
</svg>
