<svg width="38" height="38" viewBox="0 0 38 38" fill="none" xmlns="http://www.w3.org/2000/svg">
<path fill-rule="evenodd" clip-rule="evenodd" d="M18.9986 10.7495C19.1196 10.7495 19.2397 10.7495 19.3589 10.7495C16.929 13.0074 16.4577 16.6784 18.2385 19.4769C20.0193 22.2753 23.5443 23.4032 26.6189 22.1584C25.0306 25.9801 20.8566 28.0335 16.8597 26.9596C12.8629 25.8856 10.2803 22.0165 10.8215 17.9134C11.3626 13.8103 14.86 10.7432 18.9986 10.7422V10.7495Z" stroke="#2F2B3D" stroke-opacity="0.9" stroke-width="1.5" stroke-linecap="round" stroke-linejoin="round"/>
<path d="M23.5833 11.6641C23.5833 12.6766 24.4041 13.4974 25.4167 13.4974C24.4041 13.4974 23.5833 14.3182 23.5833 15.3307C23.5833 14.3182 22.7625 13.4974 21.75 13.4974C22.7625 13.4974 23.5833 12.6766 23.5833 11.6641" stroke="#2F2B3D" stroke-opacity="0.9" stroke-width="1.5" stroke-linecap="round" stroke-linejoin="round"/>
<path d="M25.4141 17.3307C24.9998 17.3307 24.6641 17.6665 24.6641 18.0807C24.6641 18.4949 24.9998 18.8307 25.4141 18.8307V17.3307ZM27.2474 18.8307C27.6616 18.8307 27.9974 18.4949 27.9974 18.0807C27.9974 17.6665 27.6616 17.3307 27.2474 17.3307V18.8307ZM27.0807 17.1641C27.0807 16.7498 26.7449 16.4141 26.3307 16.4141C25.9165 16.4141 25.5807 16.7498 25.5807 17.1641H27.0807ZM25.5807 18.9974C25.5807 19.4116 25.9165 19.7474 26.3307 19.7474C26.7449 19.7474 27.0807 19.4116 27.0807 18.9974H25.5807ZM25.4141 18.8307H27.2474V17.3307H25.4141V18.8307ZM25.5807 17.1641V18.9974H27.0807V17.1641H25.5807Z" fill="#2F2B3D" fill-opacity="0.9"/>
</svg>
