<svg width="35" height="35" viewBox="0 0 35 35" fill="none" xmlns="http://www.w3.org/2000/svg">
<path d="M17.5 14.2001V25.7501M13.375 11.7252L8.425 16.6751M21.625 11.7252L26.575 16.6751M13.6951 3.67321C15.5464 1.87967 16.4721 0.983724 17.6056 1.00022C18.7375 1.01672 19.6351 1.94402 21.427 3.7953C23.2205 5.64659 24.1165 6.57224 24.1 7.70578C24.0818 8.83767 23.1562 9.73361 21.3049 11.5272C19.4536 13.3207 18.5279 14.2166 17.3944 14.2001C16.2625 14.182 15.3649 13.2563 13.573 11.4051C11.7794 9.55376 10.8835 8.62812 10.9 7.49458C10.9181 6.36269 11.8438 5.46509 13.6951 3.67321ZM9.25 19.9751C9.25 21.0691 8.8154 22.1183 8.04182 22.8919C7.26823 23.6655 6.21902 24.1001 5.125 24.1001C4.03098 24.1001 2.98177 23.6655 2.20818 22.8919C1.4346 22.1183 1 21.0691 1 19.9751C1 18.8811 1.4346 17.8319 2.20818 17.0583C2.98177 16.2847 4.03098 15.8501 5.125 15.8501C6.21902 15.8501 7.26823 16.2847 8.04182 17.0583C8.8154 17.8319 9.25 18.8811 9.25 19.9751ZM34 19.9751C34 18.8811 33.5654 17.8319 32.7918 17.0583C32.0182 16.2847 30.969 15.8501 29.875 15.8501C28.781 15.8501 27.7318 16.2847 26.9582 17.0583C26.1846 17.8319 25.75 18.8811 25.75 19.9751C25.75 21.0691 26.1846 22.1183 26.9582 22.8919C27.7318 23.6655 28.781 24.1001 29.875 24.1001C30.969 24.1001 32.0182 23.6655 32.7918 22.8919C33.5654 22.1183 34 21.0691 34 19.9751ZM13.375 29.71C13.375 27.8439 13.375 26.91 13.9541 26.3292C14.5349 25.7501 15.4705 25.7501 17.335 25.7501H17.665C19.5312 25.7501 20.465 25.7501 21.0458 26.3292C21.625 26.91 21.625 27.8439 21.625 29.71V30.04C21.625 31.9062 21.625 32.8401 21.0458 33.4192C20.465 34 19.5295 34 17.665 34H17.335C15.4688 34 14.5349 34 13.9541 33.4192C13.375 32.8401 13.375 31.9062 13.375 30.04V29.71Z" stroke="#234895" stroke-width="1.5" stroke-linecap="round" stroke-linejoin="round"/>
</svg>
