<svg width="16" height="16" viewBox="0 0 16 16" fill="none" xmlns="http://www.w3.org/2000/svg">
<path d="M8 6.60006V11.5M6.25 5.55006L4.15 7.65005M9.75 5.55006L11.85 7.65005M6.3858 2.13409C7.1712 1.37319 7.5639 0.993095 8.0448 1.00009C8.525 1.00709 8.9058 1.40049 9.666 2.18589C10.4269 2.97128 10.807 3.36398 10.8 3.84488C10.7923 4.32507 10.3996 4.70517 9.6142 5.46606C8.8288 6.22696 8.4361 6.60706 7.9552 6.60006C7.475 6.59236 7.0942 6.19966 6.334 5.41426C5.5731 4.62887 5.193 4.23617 5.2 3.75528C5.2077 3.27508 5.6004 2.89428 6.3858 2.13409ZM4.5 9.05004C4.5 9.51417 4.31563 9.95928 3.98744 10.2875C3.65925 10.6157 3.21413 10.8 2.75 10.8C2.28587 10.8 1.84075 10.6157 1.51256 10.2875C1.18437 9.95928 1 9.51417 1 9.05004C1 8.58591 1.18437 8.1408 1.51256 7.81261C1.84075 7.48443 2.28587 7.30005 2.75 7.30005C3.21413 7.30005 3.65925 7.48443 3.98744 7.81261C4.31563 8.1408 4.5 8.58591 4.5 9.05004ZM15 9.05004C15 8.58591 14.8156 8.1408 14.4874 7.81261C14.1592 7.48443 13.7141 7.30005 13.25 7.30005C12.7859 7.30005 12.3408 7.48443 12.0126 7.81261C11.6844 8.1408 11.5 8.58591 11.5 9.05004C11.5 9.51417 11.6844 9.95928 12.0126 10.2875C12.3408 10.6157 12.7859 10.8 13.25 10.8C13.7141 10.8 14.1592 10.6157 14.4874 10.2875C14.8156 9.95928 15 9.51417 15 9.05004ZM6.25 13.18C6.25 12.3883 6.25 11.9921 6.4957 11.7457C6.7421 11.5 7.139 11.5 7.93 11.5H8.07C8.8617 11.5 9.2579 11.5 9.5043 11.7457C9.75 11.9921 9.75 12.3883 9.75 13.18V13.32C9.75 14.1117 9.75 14.5079 9.5043 14.7536C9.2579 15 8.861 15 8.07 15H7.93C7.1383 15 6.7421 15 6.4957 14.7536C6.25 14.5079 6.25 14.1117 6.25 13.32V13.18Z" stroke="#234895" stroke-width="1.5" stroke-linecap="round" stroke-linejoin="round"/>
</svg>
