<svg width="26" height="26" viewBox="0 0 26 26" fill="none" xmlns="http://www.w3.org/2000/svg">
<path d="M6.39454 1.53284C7.93098 1.03397 12.2884 2.80237 12.8466 3.43856C13.4011 4.0715 9.78104 4.33312 7.81561 4.6244C5.78761 4.9295 3.76489 5.2939 3.21198 4.65568C2.65948 4.0264 4.86014 2.03497 6.39454 1.53284Z" fill="#EAE9E9"/>
<path d="M16.9696 0.423211C18.7254 -0.0894768 23.4339 2.01896 24.0026 2.73721C24.5657 3.4644 20.517 3.64559 18.307 3.91249C16.0194 4.1863 13.7282 4.52999 13.1647 3.80605C12.5976 3.0878 15.2199 0.930617 16.9709 0.423211" fill="#EAE9E9"/>
<path d="M6.66435 3.33769C7.71938 2.64381 12.26 3.35353 13.0254 3.78944C13.7981 4.22169 10.8703 5.09716 9.34885 5.69516C7.78438 6.31388 6.2516 6.99231 5.48094 6.5495C4.70541 6.11888 5.61378 4.03847 6.66516 3.33769" fill="#EAE9E9"/>
<path d="M10.9204 0.0400274C12.4564 0.177746 14.0729 2.86468 13.923 3.50128C13.7784 4.13421 10.9379 3.15596 9.26532 2.729C7.54282 2.29106 5.76588 1.9039 5.91945 1.27096C6.06773 0.631121 9.3807 -0.0960664 10.9204 0.0400274Z" fill="#EAE9E9"/>
<path d="M16.1815 3.04651C17.7232 3.17895 19.3381 5.86792 19.1878 6.50248C19.0379 7.13907 16.199 6.15879 14.5264 5.73345C12.8088 5.29754 11.0266 4.9051 11.1802 4.27054C11.3256 3.63598 14.6455 2.91245 16.1815 3.04773" fill="#EAE9E9"/>
<path d="M1.91406 20.9818C1.91406 24.8131 7.3895 25.9291 13.2468 25.9291C19.1037 25.9291 24.5812 24.8131 24.5812 20.9818C24.5812 17.1577 19.1041 5.73438 13.2468 5.73438C7.3895 5.73438 1.91406 17.1581 1.91406 20.9818Z" fill="#EAE9E9"/>
<path d="M16.7624 6.20072C16.7625 6.39126 16.7251 6.57995 16.6522 6.75601C16.5793 6.93207 16.4725 7.09204 16.3377 7.22677C16.203 7.3615 16.043 7.46836 15.867 7.54123C15.6909 7.61409 15.5022 7.65154 15.3117 7.65144H11.1822C10.7974 7.65144 10.4284 7.49859 10.1564 7.22653C9.88429 6.95447 9.73145 6.58547 9.73145 6.20072C9.73145 5.81596 9.88429 5.44697 10.1564 5.17491C10.4284 4.90284 10.7974 4.75 11.1822 4.75H15.3113C15.5018 4.74995 15.6905 4.78743 15.8666 4.86031C16.0426 4.93319 16.2026 5.04004 16.3374 5.17476C16.4721 5.30948 16.579 5.46942 16.6519 5.64546C16.7249 5.82149 16.7624 6.01017 16.7624 6.20072Z" fill="url(#paint0_linear_8446_100396)"/>
<path d="M15.9204 16.6476C15.4707 16.1678 14.8499 15.8469 14.2605 15.5804C13.6466 15.3009 12.7573 15.073 12.3665 14.4713C12.0387 13.9676 12.4904 13.439 12.9507 13.2855C13.6917 13.0364 14.6058 13.3362 15.2562 13.7023C15.5804 13.8835 15.9224 13.7059 16.0459 13.3813C16.182 13.0222 16.3181 12.6627 16.4522 12.304C16.5342 12.0858 16.4018 11.8067 16.2068 11.697C15.6157 11.3692 14.9998 11.1896 14.3494 11.1043V10.0058C14.3494 9.71291 14.1053 9.46875 13.8124 9.46875H12.7992C12.5079 9.46875 12.2621 9.71291 12.2621 10.0058V11.2327C11.2595 11.5219 10.3458 12.1675 9.98996 13.1928C9.59427 14.3279 9.83477 15.5032 10.6769 16.3628C11.1287 16.8251 11.7389 17.1286 12.3182 17.3914C12.9718 17.6864 13.7758 17.8988 14.1979 18.5285C14.6496 19.2017 14.0655 19.8659 13.4341 20.0564C12.5867 20.3107 11.5597 19.9293 10.848 19.4861C10.536 19.2911 10.1732 19.4913 10.0598 19.807L9.6674 20.9002C9.58371 21.1338 9.72306 21.3816 9.91481 21.5067C10.5863 21.9463 11.357 22.1641 12.1467 22.2551V23.4113C12.1467 23.5685 12.2044 23.6887 12.2897 23.774C12.295 23.7797 12.3003 23.7846 12.3036 23.7899C12.3084 23.7949 12.3137 23.7996 12.3194 23.8037C12.4047 23.891 12.525 23.9483 12.6822 23.9483H13.7128C13.8547 23.947 13.9904 23.89 14.0906 23.7895C14.1908 23.689 14.2474 23.5531 14.2483 23.4113V22.1348C15.3626 21.8139 16.2239 21.094 16.6581 19.976C17.1034 18.8357 16.7248 17.5084 15.9176 16.6472" fill="url(#paint1_linear_8446_100396)"/>
<path d="M15.9204 15.9034C15.4707 15.4256 14.8499 15.1047 14.2605 14.8382C13.6466 14.5587 12.7573 14.3308 12.3665 13.7275C12.0387 13.227 12.4904 12.6968 12.9507 12.5417C13.6917 12.2942 14.6058 12.5924 15.2562 12.9585C15.5804 13.1417 15.9224 12.9617 16.0459 12.6375C16.182 12.2784 16.3181 11.9209 16.4522 11.5618C16.5342 11.342 16.4018 11.0629 16.2068 10.9548C15.6157 10.6254 14.9998 10.4474 14.3494 10.3605V9.262C14.3494 8.97072 14.1053 8.72656 13.8124 8.72656H12.7992C12.5079 8.72656 12.2621 8.97072 12.2621 9.262V10.4889C11.2595 10.7785 10.3458 11.4253 9.98996 12.4507C9.59427 13.5857 9.83477 14.761 10.6769 15.619C11.1287 16.0813 11.7389 16.3864 12.3182 16.6476C12.9718 16.9426 13.7758 17.155 14.1979 17.7847C14.6496 18.4575 14.0655 19.1221 13.4341 19.3138C12.5867 19.5686 11.5597 19.1871 10.848 18.7422C10.536 18.5485 10.1732 18.7492 10.0598 19.0632L9.6674 20.158C9.58371 20.3896 9.72306 20.6394 9.91481 20.7646C10.5863 21.2025 11.357 21.4219 12.1467 21.5129V22.6691C12.1467 22.8243 12.2044 22.9449 12.2897 23.0318C12.295 23.0375 12.3003 23.0424 12.3036 23.0477C12.3092 23.0518 12.3145 23.0564 12.3194 23.0615C12.4047 23.1468 12.525 23.2045 12.6822 23.2045H13.7128C13.8544 23.2032 13.9898 23.1465 14.0899 23.0464C14.19 22.9464 14.2469 22.811 14.2483 22.6695V21.3914C15.3626 21.0709 16.2239 20.3522 16.6581 19.233C17.1034 18.0931 16.7248 16.7642 15.9176 15.903" fill="url(#paint2_linear_8446_100396)"/>
<defs>
<linearGradient id="paint0_linear_8446_100396" x1="22.0884" y1="6.18292" x2="9.73158" y2="6.23407" gradientUnits="userSpaceOnUse">
<stop stop-color="#0085C0"/>
<stop offset="1" stop-color="#234895"/>
</linearGradient>
<linearGradient id="paint1_linear_8446_100396" x1="22.3049" y1="16.6197" x2="9.64251" y2="16.6305" gradientUnits="userSpaceOnUse">
<stop stop-color="#0085C0"/>
<stop offset="1" stop-color="#234895"/>
</linearGradient>
<linearGradient id="paint2_linear_8446_100396" x1="22.3049" y1="15.8767" x2="9.64251" y2="15.8875" gradientUnits="userSpaceOnUse">
<stop stop-color="#0085C0"/>
<stop offset="1" stop-color="#234895"/>
</linearGradient>
</defs>
</svg>
