<svg width="25" height="25" viewBox="0 0 25 25" fill="none" xmlns="http://www.w3.org/2000/svg">
<path d="M16.875 0H12.1875C11.9389 0 11.7004 0.0987719 11.5246 0.274587C11.3488 0.450403 11.25 0.68886 11.25 0.9375V5.0875C9.16712 5.38814 7.26237 6.42938 5.88489 8.02038C4.5074 9.61138 3.74946 11.6455 3.75 13.75H2.8125C2.06658 13.75 1.35121 14.0463 0.823762 14.5738C0.296316 15.1012 0 15.8166 0 16.5625V24.0625C0 24.58 0.42 25 0.9375 25H10C10.0829 25 10.1624 24.9671 10.221 24.9085C10.2796 24.8499 10.3125 24.7704 10.3125 24.6875V20.9375C10.3125 20.7717 10.3783 20.6128 10.4956 20.4956C10.6128 20.3783 10.7717 20.3125 10.9375 20.3125H14.0625C14.2283 20.3125 14.3872 20.3783 14.5044 20.4956C14.6217 20.6128 14.6875 20.7717 14.6875 20.9375V24.6875C14.6875 24.86 14.8275 25 15 25H24.0625C24.3111 25 24.5496 24.9012 24.7254 24.7254C24.9012 24.5496 25 24.3111 25 24.0625V16.5625C25 15.8166 24.7037 15.1012 24.1762 14.5738C23.6488 14.0463 22.9334 13.75 22.1875 13.75H21.25C21.25 11.5376 20.4118 9.40729 18.9043 7.78798C17.3968 6.16866 15.3318 5.18053 13.125 5.0225V3.75H16.875C17.0408 3.75 17.1997 3.68415 17.3169 3.56694C17.4342 3.44973 17.5 3.29076 17.5 3.125V0.625C17.5 0.45924 17.4342 0.300269 17.3169 0.183058C17.1997 0.0658481 17.0408 0 16.875 0ZM16.875 12.1875V14.6875C16.875 14.9361 16.7762 15.1746 16.6004 15.3504C16.4246 15.5262 16.1861 15.625 15.9375 15.625C15.6889 15.625 15.4504 15.5262 15.2746 15.3504C15.0988 15.1746 15 14.9361 15 14.6875V12.1875C15 11.9389 15.0988 11.7004 15.2746 11.5246C15.4504 11.3488 15.6889 11.25 15.9375 11.25C16.1861 11.25 16.4246 11.3488 16.6004 11.5246C16.7762 11.7004 16.875 11.9389 16.875 12.1875ZM12.1875 11.25C12.4361 11.25 12.6746 11.3488 12.8504 11.5246C13.0262 11.7004 13.125 11.9389 13.125 12.1875V14.6875C13.125 14.9361 13.0262 15.1746 12.8504 15.3504C12.6746 15.5262 12.4361 15.625 12.1875 15.625C11.9389 15.625 11.7004 15.5262 11.5246 15.3504C11.3488 15.1746 11.25 14.9361 11.25 14.6875V12.1875C11.25 11.9389 11.3488 11.7004 11.5246 11.5246C11.7004 11.3488 11.9389 11.25 12.1875 11.25ZM9.375 12.1875V14.6875C9.375 14.9361 9.27623 15.1746 9.10041 15.3504C8.9246 15.5262 8.68614 15.625 8.4375 15.625C8.18886 15.625 7.9504 15.5262 7.77459 15.3504C7.59877 15.1746 7.5 14.9361 7.5 14.6875V12.1875C7.5 11.9389 7.59877 11.7004 7.77459 11.5246C7.9504 11.3488 8.18886 11.25 8.4375 11.25C8.68614 11.25 8.9246 11.3488 9.10041 11.5246C9.27623 11.7004 9.375 11.9389 9.375 12.1875ZM4.6875 16.875C4.93614 16.875 5.1746 16.9738 5.35041 17.1496C5.52623 17.3254 5.625 17.5639 5.625 17.8125V20.9375C5.625 21.1861 5.52623 21.4246 5.35041 21.6004C5.1746 21.7762 4.93614 21.875 4.6875 21.875C4.43886 21.875 4.2004 21.7762 4.02459 21.6004C3.84877 21.4246 3.75 21.1861 3.75 20.9375V17.8125C3.75 17.5639 3.84877 17.3254 4.02459 17.1496C4.2004 16.9738 4.43886 16.875 4.6875 16.875ZM21.25 17.8125V20.9375C21.25 21.1861 21.1512 21.4246 20.9754 21.6004C20.7996 21.7762 20.5611 21.875 20.3125 21.875C20.0639 21.875 19.8254 21.7762 19.6496 21.6004C19.4738 21.4246 19.375 21.1861 19.375 20.9375V17.8125C19.375 17.5639 19.4738 17.3254 19.6496 17.1496C19.8254 16.9738 20.0639 16.875 20.3125 16.875C20.5611 16.875 20.7996 16.9738 20.9754 17.1496C21.1512 17.3254 21.25 17.5639 21.25 17.8125Z" fill="url(#paint0_linear_5999_68622)"/>
<defs>
<linearGradient id="paint0_linear_5999_68622" x1="43.9378" y1="12.3466" x2="-0.000131732" y2="12.4217" gradientUnits="userSpaceOnUse">
<stop stop-color="#0085C0"/>
<stop offset="1" stop-color="#234895"/>
</linearGradient>
</defs>
</svg>
