<svg width="18" height="18" viewBox="0 0 18 18" fill="none" xmlns="http://www.w3.org/2000/svg">
<path d="M15.8203 12.1328V3.13281H2.32031V12.1328H15.8203ZM15.8203 1.63281C16.2181 1.63281 16.5997 1.79085 16.881 2.07215C17.1623 2.35346 17.3203 2.73499 17.3203 3.13281V12.1328C17.3203 12.5306 17.1623 12.9122 16.881 13.1935C16.5997 13.4748 16.2181 13.6328 15.8203 13.6328H10.5703V15.1328H12.0703V16.6328H6.07031V15.1328H7.57031V13.6328H2.32031C1.92249 13.6328 1.54096 13.4748 1.25965 13.1935C0.978348 12.9122 0.820313 12.5306 0.820312 12.1328V3.13281C0.820312 2.30031 1.48781 1.63281 2.32031 1.63281H15.8203ZM3.82031 4.63281H10.5703V8.38281H3.82031V4.63281ZM11.3203 4.63281H14.3203V6.13281H11.3203V4.63281ZM14.3203 6.88281V10.6328H11.3203V6.88281H14.3203ZM3.82031 9.13281H6.82031V10.6328H3.82031V9.13281ZM7.57031 9.13281H10.5703V10.6328H7.57031V9.13281Z" fill="#5D5D5D"/>
</svg>
