<svg width="13" height="14" viewBox="0 0 13 14" fill="none" xmlns="http://www.w3.org/2000/svg">
<path d="M1.95244 5.70556C1.97658 5.40485 2.1131 5.12425 2.33481 4.91966C2.55652 4.71507 2.84716 4.6015 3.14884 4.60156H10.3836C10.6853 4.6015 10.976 4.71507 11.1977 4.91966C11.4194 5.12425 11.5559 5.40485 11.58 5.70556L12.0618 11.7056C12.0751 11.8707 12.054 12.0367 11.9999 12.1933C11.9459 12.3499 11.86 12.4936 11.7476 12.6153C11.6353 12.7371 11.499 12.8342 11.3473 12.9007C11.1955 12.9672 11.0317 13.0015 10.866 13.0016H2.66644C2.5008 13.0015 2.33695 12.9672 2.18523 12.9007C2.03351 12.8342 1.89719 12.7371 1.78486 12.6153C1.67253 12.4936 1.58662 12.3499 1.53255 12.1933C1.47847 12.0367 1.45739 11.8707 1.47064 11.7056L1.95244 5.70556Z" stroke="#0085C0" stroke-width="1.5" stroke-linecap="round" stroke-linejoin="round"/>
<path d="M9.16523 6.4V3.4C9.16523 2.76348 8.91238 2.15303 8.46229 1.70294C8.0122 1.25286 7.40175 1 6.76523 1C6.12871 1 5.51827 1.25286 5.06818 1.70294C4.61809 2.15303 4.36523 2.76348 4.36523 3.4V6.4" stroke="#0085C0" stroke-width="1.5" stroke-linecap="round" stroke-linejoin="round"/>
</svg>
