<svg width="27" height="32" viewBox="0 0 27 32" fill="none" xmlns="http://www.w3.org/2000/svg">
<path d="M8.20435 4.99479L17.4729 12.3281L9.52843 19.6615L18.7969 26.9948M1.58398 4.84813C1.58398 3.18933 1.58398 2.35919 2.04873 1.84293C2.51481 1.32813 3.26556 1.32812 4.76176 1.32812H5.02658C6.5241 1.32812 7.27353 1.32813 7.7396 1.84293C8.20435 2.35919 8.20435 3.19079 8.20435 4.84813V5.14146C8.20435 6.80026 8.20435 7.63039 7.7396 8.14666C7.27353 8.66146 6.52278 8.66146 5.02658 8.66146H4.76176C3.26423 8.66146 2.51481 8.66146 2.04873 8.14666C1.58398 7.63039 1.58398 6.79879 1.58398 5.14146V4.84813ZM18.7969 12.1815C18.7969 10.5227 18.7969 9.69252 19.263 9.17626C19.7264 8.66146 20.4772 8.66146 21.9747 8.66146H22.2395C23.7371 8.66146 24.4865 8.66146 24.9512 9.17626C25.4173 9.69252 25.4173 10.5241 25.4173 12.1815V12.4748C25.4173 14.1336 25.4173 14.9637 24.9512 15.48C24.4878 15.9948 23.7371 15.9948 22.2395 15.9948H21.9747C20.4772 15.9948 19.7278 15.9948 19.263 15.48C18.7969 14.9637 18.7969 14.1321 18.7969 12.4748V12.1815ZM1.58398 19.5148C1.58398 17.856 1.58398 17.0259 2.04873 16.5096C2.51481 15.9948 3.26556 15.9948 4.76176 15.9948H5.02658C6.5241 15.9948 7.27353 15.9948 7.7396 16.5096C8.20435 17.0273 8.20435 17.8575 8.20435 19.5148V19.8081C8.20435 21.4669 8.20435 22.2971 7.7396 22.8119C7.27353 23.3281 6.52278 23.3281 5.02658 23.3281H4.76176C3.26423 23.3281 2.51481 23.3281 2.04873 22.8119C1.58398 22.2985 1.58398 21.4669 1.58398 19.8081V19.5148ZM18.7969 26.8481C18.7969 25.1893 18.7969 24.3592 19.263 23.8444C19.7264 23.3281 20.4772 23.3281 21.9747 23.3281H22.2395C23.7371 23.3281 24.4865 23.3281 24.9512 23.8444C25.4173 24.3577 25.4173 25.1893 25.4173 26.8481V27.1415C25.4173 28.8003 25.4173 29.6304 24.9512 30.1452C24.4878 30.6615 23.7371 30.6615 22.2395 30.6615H21.9747C20.4772 30.6615 19.7278 30.6615 19.263 30.1452C18.7969 29.6319 18.7969 28.8003 18.7969 27.1415V26.8481Z" stroke="#234895" stroke-width="1.5" stroke-linecap="round" stroke-linejoin="round"/>
</svg>
