<svg width="26" height="25" viewBox="0 0 26 25" fill="none" xmlns="http://www.w3.org/2000/svg">
<path d="M13 0L8.099 3.04752H3.9V5.63017L1.261 7.29597C0.507 7.74793 0 8.56147 0 9.50413V22.4174C0 23.1023 0.273928 23.7592 0.761522 24.2436C1.24912 24.7279 1.91044 25 2.6 25H23.4C24.843 25 26 23.8507 26 22.4174V9.50413C26 8.56147 25.493 7.74793 24.739 7.29597L22.1 5.63017V3.04752H17.901M6.5 5.63017H19.5V11.9318L13 15.9607L6.5 11.9318M7.8 6.92149V8.85847H18.2V6.92149M3.9 8.70351V10.3177L2.6 9.50413M22.1 8.70351L23.4 9.50413L22.1 10.3177M7.8 10.1498V12.0868H18.2V10.1498H7.8Z" fill="url(#paint0_linear_5999_68566)"/>
<defs>
<linearGradient id="paint0_linear_5999_68566" x1="45.6953" y1="12.3466" x2="-0.000126119" y2="12.4278" gradientUnits="userSpaceOnUse">
<stop stop-color="#0085C0"/>
<stop offset="1" stop-color="#234895"/>
</linearGradient>
</defs>
</svg>
