<?xml version="1.0" encoding="UTF-8"?>
<svg id="Layer_1" data-name="Layer 1" xmlns="http://www.w3.org/2000/svg" xmlns:xlink="http://www.w3.org/1999/xlink" viewBox="0 0 1080 1080">
  <defs>
    <style>
      .cls-1 {
        fill: url(#linear-gradient-2);
      }

      .cls-2 {
        fill: url(#linear-gradient-3);
      }

      .cls-3 {
        fill: url(#linear-gradient);
      }
    </style>
    <linearGradient id="linear-gradient" x1="513.7" y1="583.23" x2="892.52" y2="583.23" gradientUnits="userSpaceOnUse">
      <stop offset=".34" stop-color="#0085c0"/>
      <stop offset="1" stop-color="#234895"/>
    </linearGradient>
    <linearGradient id="linear-gradient-2" x1="269.85" x2="569.3" xlink:href="#linear-gradient"/>
    <linearGradient id="linear-gradient-3" x1="513.35" y1="324.09" x2="649.02" y2="324.09" xlink:href="#linear-gradient"/>
  </defs>
  <path class="cls-3" d="m886.79,677.79c-4.31-10.07-10.89-19.01-19.23-26.12-13.68-11.88-31.66-15.74-48.51-20.89l-.23.18c-5.47-1.7-10.83-3.76-16.03-6.17-12.91-5.77-24.46-14.22-33.87-24.77-18.01-20.54-31.38-44.71-39.23-70.87-4.37-17.02-4.46-34.85-.27-51.91,2.66-12.85,1.63-26.19-2.96-38.49-4.59-12.3-12.55-23.05-22.98-31.02-20.72-14.71-52.32-21.36-75.22-7.5-14.83,9.76-25.9,24.29-31.38,41.18-5.48,16.89-5.04,35.14,1.24,51.75,4.89,9.86,11.67,18.66,19.96,25.9,8.29,7.23,17.93,12.76,28.37,16.26,14.72,4.12,29.2,9.09,43.35,14.88,15.8,9.14,29.23,21.86,39.21,37.13,7.61,11,14.16,22.69,19.58,34.91,7.8,16,5.66,33.6,3.15,50.8-11.01,4.27-22.78,6.2-34.58,5.63-22.77-1.34-44.99-7.58-65.14-18.28-12.66-7.38-23.34-17.72-31.1-30.15-6.11-9.18-14.69-16.45-24.75-20.97-10.06-4.52-21.19-6.1-32.11-4.57-21.31,3.62-43.67,19-49.09,40.54-2.92,14.61-.77,29.77,6.09,42.99,6.86,13.22,18.03,23.71,31.65,29.73,8.76,2.92,18.02,4.07,27.23,3.38,9.21-.69,18.2-3.2,26.43-7.38,11.16-6.35,22.68-12.05,34.5-17.07,14.76-4.1,30.29-4.64,45.3-1.58,11.13,1.91,22.06,4.91,32.61,8.94,16.77,5.94,26.98,21.31,37.49,34.76,6.77,8.74,13.81,15.5,21.99,20.38,9.48,7.16,20.55,12.06,32.49,13.76,17.47,2.48,35.24-1.69,49.79-11.67,8.65-5.9,15.96-13.55,21.46-22.47,5.49-8.92,9.04-18.89,10.41-29.27.62-10.94-1.3-21.88-5.61-31.95Z"/>
  <path class="cls-1" d="m544.29,519.05c8.29-7.23,15.08-16.03,19.96-25.9,6.28-16.61,6.72-34.86,1.24-51.75-5.48-16.89-16.54-31.41-31.38-41.18-22.9-13.86-54.5-7.21-75.22,7.5-10.43,7.97-18.39,18.72-22.98,31.02-4.59,12.3-5.61,25.64-2.96,38.49,4.19,17.06,4.09,34.9-.27,51.91-7.85,26.16-21.23,50.33-39.23,70.87-9.42,10.56-20.96,19-33.87,24.77-5.2,2.41-10.56,4.46-16.03,6.17l-.23-.18c-16.85,5.15-34.83,9.01-48.51,20.89-8.34,7.11-14.92,16.05-19.23,26.12-4.31,10.07-6.23,21.01-5.61,31.95,1.37,10.38,4.92,20.36,10.41,29.27,5.49,8.92,12.8,16.57,21.46,22.47,14.55,9.98,32.32,14.14,49.79,11.67,17.47-2.48,33.38-11.41,44.59-25.04,7.29-8.96,12.5-19.43,15.25-30.65,2.75-11.22,2.96-22.91.63-34.22-2.74-20.31-7.65-41.82,1.69-61,5.42-12.23,11.97-23.92,19.58-34.91,9.98-15.28,23.41-28,39.21-37.13,14.15-5.79,28.63-10.75,43.35-14.88,10.43-3.5,20.07-9.03,28.37-16.26Z"/>
  <path class="cls-2" d="m533.78,372.61c9.6,9.38,21.77,15.7,34.96,18.16,13.19,2.46,26.82.95,39.16-4.33,12.34-5.29,22.83-14.11,30.15-25.36,7.32-11.25,11.14-24.42,10.97-37.84-.1-8.9-1.95-17.7-5.44-25.88-3.5-8.19-8.58-15.6-14.95-21.82-6.37-6.22-13.9-11.12-22.16-14.43-8.26-3.31-17.1-4.95-26-4.84-13.42.14-26.5,4.27-37.58,11.84-11.08,7.58-19.66,18.27-24.65,30.73-5,12.46-6.19,26.12-3.42,39.25,2.77,13.13,9.37,25.15,18.97,34.53Z"/>
</svg>