<svg width="54" height="38" viewBox="0 0 54 38" fill="none" xmlns="http://www.w3.org/2000/svg">
<path d="M18 13C18 11.8954 18.8954 11 20 11C21.1046 11 22 11.8954 22 13C24.3402 14.1066 25.8786 16.4142 26 19V22C26.1526 23.2608 26.8949 24.3742 28 25H12C13.1051 24.3742 13.8474 23.2608 14 22V19C14.1214 16.4142 15.6598 14.1066 18 13" stroke="#2F2B3D" stroke-opacity="0.9" stroke-width="1.5" stroke-linecap="round" stroke-linejoin="round"/>
<path d="M17 25V26C17 27.6569 18.3431 29 20 29C21.6569 29 23 27.6569 23 26V25" stroke="#2F2B3D" stroke-opacity="0.9" stroke-width="1.5" stroke-linecap="round" stroke-linejoin="round"/>
<circle cx="26.75" cy="12.75" r="4.5" fill="#FF4C51" stroke="#F8F7FA" stroke-width="1.5"/>
</svg>
