<svg width="13" height="14" viewBox="0 0 13 14" fill="none" xmlns="http://www.w3.org/2000/svg">
<path d="M2.01885 5.70556C2.04298 5.40485 2.1795 5.12425 2.40121 4.91966C2.62293 4.71507 2.91357 4.6015 3.21525 4.60156H10.45C10.7517 4.6015 11.0424 4.71507 11.2641 4.91966C11.4858 5.12425 11.6223 5.40485 11.6465 5.70556L12.1283 11.7056C12.1415 11.8707 12.1204 12.0367 12.0663 12.1933C12.0123 12.3499 11.9264 12.4936 11.814 12.6153C11.7017 12.7371 11.5654 12.8342 11.4137 12.9007C11.2619 12.9672 11.0981 13.0015 10.9325 13.0016H2.73285C2.5672 13.0015 2.40336 12.9672 2.25164 12.9007C2.09991 12.8342 1.9636 12.7371 1.85127 12.6153C1.73894 12.4936 1.65303 12.3499 1.59895 12.1933C1.54487 12.0367 1.5238 11.8707 1.53705 11.7056L2.01885 5.70556Z" stroke="url(#paint0_linear_7382_61870)" stroke-width="1.5" stroke-linecap="round" stroke-linejoin="round"/>
<path d="M9.23164 6.4V3.4C9.23164 2.76348 8.97878 2.15303 8.5287 1.70294C8.07861 1.25286 7.46816 1 6.83164 1C6.19512 1 5.58467 1.25286 5.13458 1.70294C4.6845 2.15303 4.43164 2.76348 4.43164 3.4V6.4" stroke="url(#paint1_linear_7382_61870)" stroke-width="1.5" stroke-linecap="round" stroke-linejoin="round"/>
<defs>
<linearGradient id="paint0_linear_7382_61870" x1="20.1609" y1="8.75003" x2="1.53318" y2="8.79018" gradientUnits="userSpaceOnUse">
<stop stop-color="#0085C0"/>
<stop offset="1" stop-color="#234895"/>
</linearGradient>
<linearGradient id="paint1_linear_7382_61870" x1="12.8677" y1="3.66687" x2="4.43161" y2="3.67968" gradientUnits="userSpaceOnUse">
<stop stop-color="#0085C0"/>
<stop offset="1" stop-color="#234895"/>
</linearGradient>
</defs>
</svg>
