<svg width="14" height="14" viewBox="0 0 14 14" fill="none" xmlns="http://www.w3.org/2000/svg">
<path d="M6.90011 14C6.52464 13.9996 6.16439 13.8516 5.89708 13.5879L0.912998 8.59571C0.785101 8.46853 0.705389 8.30085 0.68751 8.12137L0.00326799 0.850848C-0.00720637 0.736955 0.0075712 0.622154 0.0465472 0.514627C0.0855232 0.4071 0.147738 0.309496 0.228757 0.228771C0.309476 0.147747 0.407074 0.0855286 0.514594 0.0465501C0.622114 0.00757167 0.736909 -0.00720683 0.850795 0.0032682L8.12086 0.687553C8.30033 0.705433 8.468 0.785151 8.59516 0.913056L13.587 5.89745C13.8515 6.16273 14 6.52205 14 6.89666C14 7.27126 13.8515 7.63059 13.587 7.89587L7.89537 13.5879C7.63092 13.8511 7.27322 13.9992 6.90011 14ZM2.23483 7.69369L6.90011 12.3593L12.3818 6.87722L7.71654 2.21164L1.64389 1.644L2.23483 7.69369Z" fill="#5D5D5D"/>
<path d="M5.05695 6.22341C5.70109 6.22341 6.22327 5.7012 6.22327 5.05702C6.22327 4.41284 5.70109 3.89062 5.05695 3.89062C4.4128 3.89062 3.89062 4.41284 3.89062 5.05702C3.89062 5.7012 4.4128 6.22341 5.05695 6.22341Z" fill="#5D5D5D"/>
</svg>
