<svg width="52" height="55" viewBox="0 0 52 55" fill="none" xmlns="http://www.w3.org/2000/svg">
<path d="M43.875 44.6825C44.3151 44.6825 44.696 44.8526 45.0176 45.193C45.3392 45.5333 45.5 45.9363 45.5 46.4021C45.5 46.8678 45.3392 47.2708 45.0176 47.6111C44.696 47.9515 44.3151 48.1216 43.875 48.1216H24.375C23.9349 48.1216 23.554 47.9515 23.2324 47.6111C22.9108 47.2708 22.75 46.8678 22.75 46.4021C22.75 45.9363 22.9108 45.5333 23.2324 45.193C23.554 44.8526 23.9349 44.6825 24.375 44.6825H43.875ZM40.625 51.5608C41.0651 51.5608 41.446 51.731 41.7676 52.0713C42.0892 52.4117 42.25 52.8147 42.25 53.2804C42.25 53.7461 42.0892 54.1492 41.7676 54.4895C41.446 54.8298 41.0651 55 40.625 55H27.625C27.1849 55 26.804 54.8298 26.4824 54.4895C26.1608 54.1492 26 53.7461 26 53.2804C26 52.8147 26.1608 52.4117 26.4824 52.0713C26.804 51.731 27.1849 51.5608 27.625 51.5608H40.625ZM46.668 37.8041H52V41.2433H13.6348C13.4655 42.3897 13.347 43.5361 13.2793 44.6825C13.2116 45.8289 13.1523 46.9663 13.1016 48.0948C13.0508 49.2233 13.0254 50.3696 13.0254 51.534C13.0254 52.6983 13.0169 53.8536 13 55H3.25V49.8144C3.25 48.3635 3.30078 46.9305 3.40234 45.5154C3.50391 44.1003 3.64779 42.6763 3.83398 41.2433H0V37.8041H4.36719C5.21354 33.4156 6.49154 29.1972 8.20117 25.149C9.91081 21.1008 12.0267 17.2765 14.5488 13.6761C12.0775 13.5865 9.80925 13.0402 7.74414 12.0371C5.67904 11.034 3.79167 9.60104 2.08203 7.73815L0.939453 6.5022L2.13281 5.31998C3.89323 3.58248 5.82292 2.26592 7.92188 1.3703C10.0208 0.474678 12.2806 0.0179124 14.7012 0C17.3418 0 19.7624 0.519459 21.9629 1.55838C24.1634 2.5973 26.1862 4.10194 28.0313 6.0723C29.3346 6.10813 30.5957 6.32307 31.8145 6.71715C33.0332 7.11122 34.1673 7.64859 35.2168 8.32926C36.2663 9.00993 37.2227 9.81599 38.0859 10.7474C38.9492 11.6789 39.6855 12.7088 40.2949 13.8373C40.9043 14.9658 41.3867 16.1749 41.7422 17.4646C42.0977 18.7543 42.2669 20.0977 42.25 21.4949V23.2145H40.625C38.3906 23.2145 36.3001 22.7129 34.3535 21.7098C32.4069 20.7067 30.7227 19.2827 29.3008 17.4377C28.0143 19.9096 26.3978 21.9427 24.4512 23.5369C22.5046 25.1311 20.2279 26.2506 17.6211 26.8955C16.8932 28.6688 16.25 30.46 15.6914 32.2692C15.1328 34.0783 14.6504 35.9233 14.2441 37.8041H21.582C21.9544 36.2995 22.5384 34.9202 23.334 33.6663C24.1296 32.4125 25.0775 31.3198 26.1777 30.3884C27.278 29.4569 28.5137 28.7494 29.8848 28.2658C31.2559 27.7821 32.6693 27.5224 34.125 27.4866C35.5977 27.4866 37.0111 27.7373 38.3652 28.2389C39.7194 28.7404 40.9466 29.4569 42.0469 30.3884C43.1471 31.3198 44.1035 32.4035 44.916 33.6395C45.7285 34.8754 46.3125 36.2636 46.668 37.8041ZM31.4336 10.1832C31.332 11.3475 31.112 12.5297 30.7734 13.7298C31.6367 15.3061 32.7708 16.6137 34.1758 17.6527C35.5807 18.6916 37.1465 19.3543 38.873 19.6409C38.7038 18.5483 38.4076 17.5183 37.9844 16.5511C37.5612 15.5838 37.028 14.6792 36.3848 13.8373C35.7415 12.9954 34.9967 12.2789 34.1504 11.6878C33.304 11.0967 32.3984 10.5952 31.4336 10.1832ZM28.2344 10.3713C26.5078 10.5146 24.8828 10.9624 23.3594 11.7147C21.8359 12.467 20.4733 13.4522 19.2715 14.6702C18.0697 15.8883 17.0794 17.2944 16.3008 18.8886C15.5221 20.4828 15.0059 22.1755 14.752 23.9668C16.1908 23.8414 17.5534 23.519 18.8398 22.9995C20.1263 22.4801 21.3027 21.7815 22.3691 20.9038C23.4355 20.0261 24.3835 19.023 25.2129 17.8945C26.0423 16.766 26.7279 15.4763 27.2695 14.0254C27.5065 13.4343 27.7012 12.8342 27.8535 12.2252C28.0059 11.6162 28.1328 10.9982 28.2344 10.3713ZM5.6875 6.60967C7.04167 7.79189 8.53971 8.69647 10.1816 9.3234C11.8236 9.95033 13.5247 10.2638 15.2852 10.2638C16.9271 10.2638 18.5098 9.99511 20.0332 9.45774C21.5566 8.92037 22.9785 8.13223 24.2988 7.09331C22.9447 5.91109 21.4466 5.00651 19.8047 4.37958C18.1628 3.75265 16.4616 3.43918 14.7012 3.43918C13.0592 3.43918 11.4766 3.70787 9.95312 4.24524C8.42969 4.78261 7.00781 5.57075 5.6875 6.60967ZM13.7617 27.4328C13.6263 27.4687 13.4909 27.4866 13.3555 27.4866C13.2201 27.4866 13.0846 27.4866 12.9492 27.4866H12.1367C11.8659 27.4866 11.5951 27.4687 11.3242 27.4328V26.17C10.4271 28.2837 9.67383 30.3615 9.06445 32.4035C8.45508 34.4455 7.95573 36.5055 7.56641 38.5833C7.17708 40.6611 6.90625 42.7658 6.75391 44.8974C6.60156 47.029 6.51693 49.2501 6.5 51.5608H9.75C9.75 49.3934 9.81771 47.2977 9.95312 45.2736C10.0885 43.2495 10.3171 41.2522 10.6387 39.2819C10.9603 37.3115 11.375 35.3501 11.8828 33.3977C12.3906 31.4452 13.0169 29.4569 13.7617 27.4328ZM24.9844 37.8041H43.2656C42.9271 36.7831 42.4531 35.8517 41.8438 35.0098C41.2344 34.1679 40.5319 33.4424 39.7363 32.8334C38.9408 32.2244 38.0605 31.7587 37.0957 31.4362C36.1309 31.1138 35.1406 30.9437 34.125 30.9257C33.0924 30.9257 32.1022 31.087 31.1543 31.4094C30.2064 31.7318 29.3346 32.1975 28.5391 32.8065C27.7435 33.4156 27.0326 34.141 26.4062 34.9829C25.7799 35.8248 25.306 36.7652 24.9844 37.8041Z" fill="#234895"/>
</svg>
