<svg width="108" height="95" viewBox="0 0 108 95" fill="none" xmlns="http://www.w3.org/2000/svg">
<g clip-path="url(#clip0_5366_64298)">
<rect width="108" height="95" rx="15" fill="white"/>
<path d="M65.1619 11.3672L74.2034 20.7922V56.6332H40.4277V56.7502H74.3187V20.9108L65.1619 11.3672Z" fill="#909090"/>
<path d="M65.0499 11.25H40.3125V56.633H74.2035V20.7936L65.0499 11.25Z" fill="#F4F4F4"/>
<path d="M40.0634 13.6875H29.6797V24.7814H62.3422V13.6875H40.0634Z" fill="#7A7B7C"/>
<path d="M62.5177 24.5942H29.8926V13.4922H62.5177V24.5942Z" fill="#DD2025"/>
<path d="M40.7098 15.3683H38.5859V23.1683H40.2564V20.5374L40.6253 20.5586C40.9839 20.5536 41.3391 20.4894 41.6767 20.3684C41.9735 20.2677 42.2462 20.1067 42.4778 19.8956C42.7153 19.6964 42.9019 19.4435 43.0222 19.1578C43.1867 18.6845 43.245 18.1807 43.1928 17.6823C43.1835 17.3262 43.1211 16.9735 43.0076 16.6358C42.9052 16.3918 42.7531 16.1717 42.5609 15.9899C42.3686 15.808 42.1405 15.6682 41.8912 15.5796C41.6762 15.5 41.4534 15.4433 41.2266 15.4106C41.0552 15.3827 40.8818 15.3685 40.7082 15.3683M40.4011 19.0961H40.2564V16.6911H40.5701C40.7085 16.6811 40.8474 16.7023 40.9765 16.7532C41.1056 16.8042 41.2216 16.8834 41.3159 16.9852C41.5115 17.2468 41.6159 17.5653 41.6133 17.8919C41.6133 18.2917 41.6133 18.6541 41.2526 18.9092C40.9927 19.0523 40.6969 19.1183 40.4011 19.0961ZM46.3664 15.3472C46.1861 15.3472 46.0106 15.3602 45.8871 15.3651L45.5003 15.3748H44.2328V23.1748H45.7246C46.2946 23.1895 46.862 23.0929 47.3951 22.8904C47.8243 22.721 48.2041 22.4466 48.5001 22.0926C48.79 21.7369 48.9971 21.3212 49.1062 20.8754C49.2344 20.3716 49.2966 19.8532 49.2914 19.3333C49.3232 18.7193 49.2757 18.1038 49.1501 17.5019C49.0298 17.0594 48.8071 16.6514 48.5001 16.3108C48.2592 16.0354 47.963 15.8139 47.6307 15.6608C47.346 15.5289 47.0465 15.4318 46.7386 15.3716C46.6161 15.3515 46.4921 15.3423 46.3681 15.3439M46.0723 21.7416H45.9098V16.7626H45.9309C46.266 16.7238 46.605 16.7843 46.9059 16.9364C47.1264 17.1125 47.306 17.3342 47.4324 17.5864C47.5689 17.8519 47.6475 18.1432 47.6632 18.4412C47.6778 18.7987 47.6632 19.0912 47.6632 19.3333C47.6692 19.6122 47.6513 19.8911 47.6096 20.1669C47.5584 20.4498 47.4659 20.7236 47.3349 20.9794C47.187 21.2181 46.9849 21.4185 46.7451 21.5644C46.5447 21.6945 46.3072 21.755 46.0691 21.7367M54.3241 15.3748H50.3753V23.1748H52.0458V20.0808H54.1583V18.6313H52.0458V16.8243H54.3208V15.3748" fill="#464648"/>
<path d="M61.3951 40.913C61.3951 40.913 66.5756 39.9737 66.5756 41.7434C66.5756 43.513 63.3662 42.7931 61.3951 40.913ZM57.565 41.0479C56.7418 41.2292 55.9396 41.4955 55.1713 41.8425L55.8213 40.38C56.4713 38.9175 57.1457 36.9236 57.1457 36.9236C57.9194 38.2303 58.822 39.4563 59.84 40.5831C59.0736 40.6973 58.3141 40.8535 57.565 41.0511V41.0479ZM55.5142 30.4854C55.5142 28.9432 56.0131 28.5224 56.4015 28.5224C56.7898 28.5224 57.227 28.7092 57.2416 30.0482C57.1149 31.3946 56.833 32.7218 56.4015 34.0035C55.8084 32.9282 55.5023 31.7182 55.5126 30.4902L55.5142 30.4854ZM47.9596 47.5739C46.3703 46.6232 51.2925 43.6966 52.1846 43.6024C52.1797 43.604 49.6236 48.5684 47.9596 47.5739ZM68.0885 41.953C68.0722 41.7905 67.926 39.9916 64.7247 40.068C63.3903 40.0446 62.0565 40.1387 60.7386 40.3491C59.4612 39.0633 58.3616 37.6123 57.4691 36.0347C58.031 34.4086 58.3715 32.7142 58.4815 30.9972C58.4343 29.0472 57.968 27.9292 56.473 27.9455C54.978 27.9617 54.7602 29.2699 54.9568 31.2166C55.1493 32.5249 55.5126 33.8022 56.0375 35.0159C56.0375 35.0159 55.3468 37.1657 54.4336 39.3042C53.5203 41.4427 52.8963 42.564 52.8963 42.564C51.308 43.0804 49.813 43.8485 48.4682 44.839C47.1292 46.0854 46.5848 47.0425 47.2901 47.9996C47.8978 48.8251 50.025 49.012 51.9262 46.5209C52.9347 45.2329 53.8575 43.8802 54.6887 42.4714C54.6887 42.4714 57.5877 41.6767 58.4896 41.459C59.3915 41.2412 60.4818 41.069 60.4818 41.069C60.4818 41.069 63.129 43.7324 65.6818 43.6381C68.2347 43.5439 68.1112 42.1122 68.095 41.9562" fill="#DD2025"/>
<path d="M64.9258 11.375V20.9186H74.0794L64.9258 11.375Z" fill="#909090"/>
<path d="M65.0508 11.25V20.7936H74.2044L65.0508 11.25Z" fill="#F4F4F4"/>
<path d="M40.5848 15.2433H38.4609V23.0433H40.1379V20.4141L40.5084 20.4352C40.867 20.4303 41.2222 20.366 41.5598 20.2451C41.8566 20.1443 42.1293 19.9833 42.3609 19.7722C42.5967 19.5725 42.7816 19.3196 42.9004 19.0344C43.065 18.5611 43.1232 18.0573 43.0711 17.5589C43.0618 17.2028 42.9994 16.8501 42.8858 16.5124C42.7835 16.2684 42.6313 16.0484 42.4391 15.8665C42.2469 15.6846 42.0188 15.5449 41.7694 15.4562C41.5535 15.3758 41.3296 15.3186 41.1016 15.2856C40.9302 15.2577 40.7568 15.2435 40.5832 15.2433M40.2761 18.9711H40.1314V16.5661H40.4467C40.5851 16.5561 40.724 16.5773 40.8531 16.6282C40.9822 16.6792 41.0982 16.7584 41.1926 16.8602C41.3881 17.1218 41.4925 17.4403 41.4899 17.7669C41.4899 18.1667 41.4899 18.5291 41.1292 18.7842C40.8694 18.9273 40.5735 18.9917 40.2777 18.9694M46.2414 15.2222C46.0611 15.2222 45.8856 15.2352 45.7621 15.2401L45.3802 15.2498H44.1127V23.0498H45.6044C46.1745 23.0645 46.7419 22.9679 47.2749 22.7654C47.7041 22.596 48.084 22.3216 48.3799 21.9676C48.6699 21.6119 48.877 21.1962 48.9861 20.7504C49.1142 20.2466 49.1765 19.7282 49.1713 19.2083C49.2031 18.5943 49.1556 17.9788 49.0299 17.3769C48.9096 16.9344 48.687 16.5264 48.3799 16.1858C48.1391 15.9104 47.8429 15.6889 47.5106 15.5358C47.2259 15.4039 46.9264 15.3068 46.6184 15.2466C46.496 15.2265 46.372 15.2173 46.2479 15.2189M45.9522 21.6166H45.7897V16.6376H45.8108C46.1458 16.5988 46.4848 16.6593 46.7858 16.8114C47.0063 16.9875 47.1859 17.2092 47.3123 17.4614C47.4487 17.7269 47.5274 18.0182 47.5431 18.3162C47.5577 18.6737 47.5431 18.9662 47.5431 19.2083C47.5491 19.4872 47.5311 19.7661 47.4894 20.0419C47.4383 20.3248 47.3458 20.5986 47.2148 20.8544C47.0669 21.0931 46.8648 21.2935 46.6249 21.4394C46.4246 21.5695 46.1871 21.63 45.9489 21.6117M54.1991 15.2498H50.2503V23.0498H51.9208V19.9558H54.0333V18.5063H51.9208V16.6993H54.1958V15.2498" fill="white"/>
<path d="M26.832 82V74.92H24.048V73.6H31.176V74.92H28.392V82H26.832ZM35.8109 82V80.704L35.7269 80.428V78.16C35.7269 77.72 35.5949 77.38 35.3309 77.14C35.0669 76.892 34.6669 76.768 34.1309 76.768C33.7709 76.768 33.4149 76.824 33.0629 76.936C32.7189 77.048 32.4269 77.204 32.1869 77.404L31.5989 76.312C31.9429 76.048 32.3509 75.852 32.8229 75.724C33.3029 75.588 33.7989 75.52 34.3109 75.52C35.2389 75.52 35.9549 75.744 36.4589 76.192C36.9709 76.632 37.2269 77.316 37.2269 78.244V82H35.8109ZM33.7949 82.084C33.3149 82.084 32.8949 82.004 32.5349 81.844C32.1749 81.676 31.8949 81.448 31.6949 81.16C31.5029 80.864 31.4069 80.532 31.4069 80.164C31.4069 79.804 31.4909 79.48 31.6589 79.192C31.8349 78.904 32.1189 78.676 32.5109 78.508C32.9029 78.34 33.4229 78.256 34.0709 78.256H35.9309V79.252H34.1789C33.6669 79.252 33.3229 79.336 33.1469 79.504C32.9709 79.664 32.8829 79.864 32.8829 80.104C32.8829 80.376 32.9909 80.592 33.2069 80.752C33.4229 80.912 33.7229 80.992 34.1069 80.992C34.4749 80.992 34.8029 80.908 35.0909 80.74C35.3869 80.572 35.5989 80.324 35.7269 79.996L35.9789 80.896C35.8349 81.272 35.5749 81.564 35.1989 81.772C34.8309 81.98 34.3629 82.084 33.7949 82.084ZM38.276 82L41.096 78.328L41.072 79.132L38.384 75.592H40.052L41.936 78.112H41.3L43.196 75.592H44.816L42.104 79.132L42.116 78.328L44.924 82H43.232L41.252 79.324L41.876 79.408L39.932 82H38.276ZM49.5513 82V75.232C49.5513 74.56 49.7473 74.024 50.1393 73.624C50.5393 73.216 51.1073 73.012 51.8433 73.012C52.1073 73.012 52.3553 73.04 52.5873 73.096C52.8273 73.152 53.0273 73.24 53.1873 73.36L52.7793 74.488C52.6673 74.4 52.5393 74.336 52.3953 74.296C52.2513 74.248 52.1033 74.224 51.9513 74.224C51.6393 74.224 51.4033 74.312 51.2433 74.488C51.0833 74.656 51.0033 74.912 51.0033 75.256V75.976L51.0513 76.648V82H49.5513ZM48.4953 76.84V75.64H52.7673V76.84H48.4953ZM53.8233 82V75.592H55.3233V82H53.8233ZM54.5793 74.536C54.2993 74.536 54.0673 74.448 53.8833 74.272C53.7073 74.096 53.6193 73.884 53.6193 73.636C53.6193 73.38 53.7073 73.168 53.8833 73C54.0673 72.824 54.2993 72.736 54.5793 72.736C54.8593 72.736 55.0873 72.82 55.2633 72.988C55.4473 73.148 55.5393 73.352 55.5393 73.6C55.5393 73.864 55.4513 74.088 55.2753 74.272C55.0993 74.448 54.8673 74.536 54.5793 74.536ZM57.2926 82V73.096H58.7926V82H57.2926ZM63.7733 82.084C63.0613 82.084 62.4373 81.944 61.9013 81.664C61.3733 81.376 60.9613 80.984 60.6653 80.488C60.3773 79.992 60.2333 79.428 60.2333 78.796C60.2333 78.156 60.3733 77.592 60.6533 77.104C60.9413 76.608 61.3333 76.22 61.8293 75.94C62.3333 75.66 62.9053 75.52 63.5453 75.52C64.1693 75.52 64.7253 75.656 65.2133 75.928C65.7013 76.2 66.0853 76.584 66.3653 77.08C66.6453 77.576 66.7853 78.16 66.7853 78.832C66.7853 78.896 66.7813 78.968 66.7733 79.048C66.7733 79.128 66.7693 79.204 66.7613 79.276H61.4213V78.28H65.9693L65.3813 78.592C65.3893 78.224 65.3133 77.9 65.1533 77.62C64.9933 77.34 64.7733 77.12 64.4933 76.96C64.2213 76.8 63.9053 76.72 63.5453 76.72C63.1773 76.72 62.8533 76.8 62.5733 76.96C62.3013 77.12 62.0853 77.344 61.9253 77.632C61.7733 77.912 61.6973 78.244 61.6973 78.628V78.868C61.6973 79.252 61.7853 79.592 61.9613 79.888C62.1373 80.184 62.3853 80.412 62.7053 80.572C63.0253 80.732 63.3933 80.812 63.8093 80.812C64.1693 80.812 64.4933 80.756 64.7813 80.644C65.0693 80.532 65.3253 80.356 65.5493 80.116L66.3533 81.04C66.0653 81.376 65.7013 81.636 65.2613 81.82C64.8293 81.996 64.3333 82.084 63.7733 82.084ZM71.6866 82V73.6H73.2466V82H71.6866ZM75.5186 82V73.6H79.1906C80.1026 73.6 80.9026 73.776 81.5906 74.128C82.2786 74.48 82.8146 74.968 83.1986 75.592C83.5826 76.216 83.7746 76.952 83.7746 77.8C83.7746 78.64 83.5826 79.376 83.1986 80.008C82.8146 80.632 82.2786 81.12 81.5906 81.472C80.9026 81.824 80.1026 82 79.1906 82H75.5186ZM77.0786 80.68H79.1186C79.7506 80.68 80.2946 80.56 80.7506 80.32C81.2146 80.08 81.5706 79.744 81.8186 79.312C82.0746 78.88 82.2026 78.376 82.2026 77.8C82.2026 77.216 82.0746 76.712 81.8186 76.288C81.5706 75.856 81.2146 75.52 80.7506 75.28C80.2946 75.04 79.7506 74.92 79.1186 74.92H77.0786V80.68Z" fill="#5D5D5D"/>
</g>
<rect x="0.5" y="0.5" width="107" height="94" rx="14.5" stroke="#FAF7F7"/>
<defs>
<clipPath id="clip0_5366_64298">
<rect width="108" height="95" rx="15" fill="white"/>
</clipPath>
</defs>
</svg>
