<svg width="22" height="22" viewBox="0 0 22 22" fill="none" xmlns="http://www.w3.org/2000/svg">
<path d="M17.9178 16.4614C18.1115 16.6551 18.2204 16.9179 18.2204 17.1919C18.2204 17.4658 18.1115 17.7286 17.9178 17.9223C17.7241 18.1161 17.4613 18.2249 17.1873 18.2249C16.9134 18.2249 16.6506 18.1161 16.4569 17.9223L11.0007 12.4644L5.5428 17.9206C5.34907 18.1144 5.08631 18.2232 4.81234 18.2232C4.53836 18.2232 4.2756 18.1144 4.08187 17.9206C3.88813 17.7269 3.7793 17.4641 3.7793 17.1901C3.7793 16.9162 3.88813 16.6534 4.08187 16.4597L9.53976 11.0035L4.08359 5.54562C3.88985 5.35188 3.78102 5.08913 3.78102 4.81515C3.78102 4.54117 3.88985 4.27841 4.08359 4.08468C4.27732 3.89095 4.54008 3.78211 4.81405 3.78211C5.08803 3.78211 5.35079 3.89095 5.54452 4.08468L11.0007 9.54257L16.4586 4.08382C16.6523 3.89009 16.9151 3.78125 17.1891 3.78125C17.463 3.78125 17.7258 3.89009 17.9195 4.08382C18.1133 4.27755 18.2221 4.54031 18.2221 4.81429C18.2221 5.08827 18.1133 5.35103 17.9195 5.54476L12.4616 11.0035L17.9178 16.4614Z" fill="#141414"/>
</svg>
