<svg width="22" height="27" viewBox="0 0 22 27" fill="none" xmlns="http://www.w3.org/2000/svg">
<path fill-rule="evenodd" clip-rule="evenodd" d="M14.1935 0.346154C14.1935 0.254348 14.1562 0.166303 14.0896 0.101386C14.0231 0.0364697 13.9328 0 13.8387 0H3.90323C2.86803 0 1.87522 0.401167 1.14323 1.11525C0.411231 1.82933 0 2.79783 0 3.80769V23.1923C0 24.2022 0.411231 25.1707 1.14323 25.8848C1.87522 26.5988 2.86803 27 3.90323 27H18.0968C19.132 27 20.1248 26.5988 20.8568 25.8848C21.5888 25.1707 22 24.2022 22 23.1923V9.54969C22 9.45789 21.9626 9.36984 21.8961 9.30492C21.8295 9.24001 21.7393 9.20354 21.6452 9.20354H15.2581C14.9757 9.20354 14.705 9.09413 14.5053 8.89938C14.3057 8.70463 14.1935 8.44049 14.1935 8.16508V0.346154ZM15.2581 13.8462C15.5404 13.8462 15.8112 13.9556 16.0108 14.1503C16.2104 14.3451 16.3226 14.6092 16.3226 14.8846C16.3226 15.16 16.2104 15.4242 16.0108 15.6189C15.8112 15.8137 15.5404 15.9231 15.2581 15.9231H6.74194C6.45961 15.9231 6.18884 15.8137 5.98921 15.6189C5.78957 15.4242 5.67742 15.16 5.67742 14.8846C5.67742 14.6092 5.78957 14.3451 5.98921 14.1503C6.18884 13.9556 6.45961 13.8462 6.74194 13.8462H15.2581ZM15.2581 19.3846C15.5404 19.3846 15.8112 19.494 16.0108 19.6888C16.2104 19.8835 16.3226 20.1477 16.3226 20.4231C16.3226 20.6985 16.2104 20.9626 16.0108 21.1574C15.8112 21.3521 15.5404 21.4615 15.2581 21.4615H6.74194C6.45961 21.4615 6.18884 21.3521 5.98921 21.1574C5.78957 20.9626 5.67742 20.6985 5.67742 20.4231C5.67742 20.1477 5.78957 19.8835 5.98921 19.6888C6.18884 19.494 6.45961 19.3846 6.74194 19.3846H15.2581Z" fill="url(#paint0_linear_5999_68848)"/>
<path d="M16.3223 0.797338C16.3223 0.542569 16.5962 0.380569 16.7992 0.5398C16.9709 0.675492 17.1256 0.833339 17.2576 1.01334L21.5341 6.82457C21.6307 6.95749 21.5256 7.12918 21.3581 7.12918H16.6771C16.583 7.12918 16.4927 7.09272 16.4262 7.0278C16.3597 6.96288 16.3223 6.87484 16.3223 6.78303V0.797338Z" fill="url(#paint1_linear_5999_68848)"/>
<defs>
<linearGradient id="paint0_linear_5999_68848" x1="38.6652" y1="13.3344" x2="-0.000153846" y2="13.3882" gradientUnits="userSpaceOnUse">
<stop stop-color="#0085C0"/>
<stop offset="1" stop-color="#234895"/>
</linearGradient>
<linearGradient id="paint1_linear_5999_68848" x1="25.547" y1="3.76206" x2="16.3222" y2="3.77449" gradientUnits="userSpaceOnUse">
<stop stop-color="#0085C0"/>
<stop offset="1" stop-color="#234895"/>
</linearGradient>
</defs>
</svg>
