<svg width="16" height="16" viewBox="0 0 16 16" fill="none" xmlns="http://www.w3.org/2000/svg">
<path d="M5.63423 15H10.0888M5.63423 15V11.1111M5.63423 15H1.62514C1.507 15 1.3937 14.9508 1.31016 14.8633C1.22662 14.7758 1.17969 14.6571 1.17969 14.5333V11.5778C1.17969 11.454 1.22662 11.3353 1.31016 11.2478C1.3937 11.1603 1.507 11.1111 1.62514 11.1111H5.63423M10.0888 15V5.66667M10.0888 15H14.0979C14.216 15 14.3293 14.9508 14.4129 14.8633C14.4964 14.7758 14.5433 14.6571 14.5433 14.5333V1.46667C14.5433 1.3429 14.4964 1.2242 14.4129 1.13668C14.3293 1.04917 14.216 1 14.0979 1H10.5342C10.4161 1 10.3028 1.04917 10.2192 1.13668C10.1357 1.2242 10.0888 1.3429 10.0888 1.46667V5.66667M5.63423 11.1111V6.13333C5.63423 6.00957 5.68116 5.89087 5.7647 5.80335C5.84824 5.71583 5.96155 5.66667 6.07969 5.66667H10.0888" stroke="#5D5D5D" stroke-width="1.5"/>
</svg>
