<svg width="16" height="15" viewBox="0 0 16 15" fill="none" xmlns="http://www.w3.org/2000/svg">
<path d="M13.7852 1.69686C13.6189 1.58765 13.4287 1.52158 13.2314 1.50446C13.034 1.48734 12.8356 1.51969 12.6534 1.59867L6.68463 3.98483C6.54332 4.0432 6.3922 4.07322 6.23963 4.0732H2.41846C2.09775 4.0732 1.79018 4.20252 1.56341 4.43271C1.33663 4.6629 1.20923 4.97511 1.20923 5.30065V5.39885H0V8.34472H1.20923V8.47237C1.21681 8.79278 1.34755 9.09747 1.57351 9.32133C1.79947 9.54519 2.10272 9.67046 2.41846 9.67036L3.86954 12.793C3.9678 13.0033 4.12249 13.1812 4.31586 13.3062C4.50922 13.4313 4.73341 13.4984 4.96269 13.5H5.57214C5.89117 13.4974 6.19626 13.3669 6.42095 13.137C6.64564 12.9071 6.77171 12.5964 6.7717 12.2726V9.7882L12.6534 12.1744C12.7981 12.2328 12.9524 12.2628 13.1081 12.2627C13.3496 12.2588 13.5849 12.1837 13.7852 12.0467C13.9444 11.9377 14.0756 11.7917 14.1681 11.621C14.2606 11.4502 14.3118 11.2595 14.3173 11.0647V2.70828C14.3164 2.50847 14.2675 2.3119 14.1748 2.13564C14.082 1.95938 13.9483 1.80876 13.7852 1.69686ZM5.56247 5.30065V8.47237H2.41846V5.30065H5.56247ZM5.56247 12.2726H4.95301L3.76313 9.67036H5.56247V12.2726ZM7.12963 8.61967C7.01477 8.56009 6.895 8.5108 6.7717 8.47237V5.23191C6.89382 5.20633 7.01357 5.1702 7.12963 5.1239L13.1081 2.70828V11.0353L7.12963 8.61967ZM14.3463 5.64433V8.09923C14.667 8.09923 14.9746 7.96991 15.2014 7.73972C15.4282 7.50953 15.5556 7.19732 15.5556 6.87178C15.5556 6.54624 15.4282 6.23404 15.2014 6.00385C14.9746 5.77365 14.667 5.64433 14.3463 5.64433Z" fill="#5D5D5D"/>
</svg>
