<svg width="14" height="18" viewBox="0 0 14 18" fill="none" xmlns="http://www.w3.org/2000/svg">
<path d="M3.5 11.0375C3.82593 10.705 4.21491 10.4409 4.64419 10.2606C5.07347 10.0803 5.5344 9.98742 6 9.98749H8C8.58706 9.98769 9.15545 9.78129 9.6056 9.40447C10.0557 9.02764 10.3589 8.50442 10.462 7.92649C9.99342 7.79598 9.58846 7.49916 9.32292 7.0916C9.05739 6.68405 8.94949 6.19369 9.01941 5.71232C9.08934 5.23095 9.3323 4.79156 9.70282 4.4764C10.0733 4.16124 10.546 3.99191 11.0324 4.00012C11.5187 4.00832 11.9854 4.19349 12.3451 4.52096C12.7048 4.84844 12.9328 5.29577 12.9864 5.77922C13.0401 6.26268 12.9157 6.74912 12.6366 7.14749C12.3575 7.54586 11.9427 7.82885 11.47 7.94349C11.3591 8.78532 10.946 9.55814 10.3076 10.118C9.66924 10.6778 8.8491 10.9865 8 10.9865H6C5.4088 10.9863 4.83666 11.1957 4.38519 11.5774C3.93373 11.9591 3.63215 12.4885 3.534 13.0715C4.00167 13.201 4.4063 13.4962 4.67247 13.9019C4.93865 14.3077 5.04822 14.7964 4.98078 15.2769C4.91333 15.7575 4.67346 16.1971 4.30586 16.5139C3.93827 16.8307 3.46803 17.0031 2.98278 16.9989C2.49753 16.9946 2.03036 16.8141 1.66834 16.491C1.30632 16.1678 1.07414 15.7241 1.01506 15.2424C0.95599 14.7607 1.07405 14.274 1.34725 13.873C1.62045 13.4719 2.03015 13.1839 2.5 13.0625V4.93649C2.02868 4.8148 1.61791 4.52538 1.3447 4.12249C1.0715 3.7196 0.954608 3.2309 1.01595 2.74799C1.07728 2.26508 1.31264 1.82113 1.67789 1.49933C2.04314 1.17754 2.51322 1 3 1C3.48679 1 3.95687 1.17754 4.32212 1.49933C4.68737 1.82113 4.92273 2.26508 4.98406 2.74799C5.0454 3.2309 4.92851 3.7196 4.65531 4.12249C4.3821 4.52538 3.97133 4.8148 3.5 4.93649V11.0375ZM3 3.99949C3.26522 3.99949 3.51957 3.89413 3.70711 3.7066C3.89465 3.51906 4 3.26471 4 2.99949C4 2.73428 3.89465 2.47992 3.70711 2.29238C3.51957 2.10485 3.26522 1.99949 3 1.99949C2.73479 1.99949 2.48043 2.10485 2.2929 2.29238C2.10536 2.47992 2 2.73428 2 2.99949C2 3.26471 2.10536 3.51906 2.2929 3.7066C2.48043 3.89413 2.73479 3.99949 3 3.99949ZM3 15.9995C3.26522 15.9995 3.51957 15.8941 3.70711 15.7066C3.89465 15.5191 4 15.2647 4 14.9995C4 14.7343 3.89465 14.4799 3.70711 14.2924C3.51957 14.1048 3.26522 13.9995 3 13.9995C2.73479 13.9995 2.48043 14.1048 2.2929 14.2924C2.10536 14.4799 2 14.7343 2 14.9995C2 15.2647 2.10536 15.5191 2.2929 15.7066C2.48043 15.8941 2.73479 15.9995 3 15.9995ZM11 6.99949C11.2652 6.99949 11.5196 6.89413 11.7071 6.7066C11.8946 6.51906 12 6.26471 12 5.99949C12 5.73428 11.8946 5.47992 11.7071 5.29239C11.5196 5.10485 11.2652 4.99949 11 4.99949C10.7348 4.99949 10.4804 5.10485 10.2929 5.29239C10.1054 5.47992 10 5.73428 10 5.99949C10 6.26471 10.1054 6.51906 10.2929 6.7066C10.4804 6.89413 10.7348 6.99949 11 6.99949Z" fill="url(#paint0_linear_6085_80203)" stroke="url(#paint1_linear_6085_80203)" stroke-width="0.5"/>
<defs>
<linearGradient id="paint0_linear_6085_80203" x1="22.0878" y1="8.90131" x2="0.99991" y2="8.92833" gradientUnits="userSpaceOnUse">
<stop stop-color="#0085C0"/>
<stop offset="1" stop-color="#234895"/>
</linearGradient>
<linearGradient id="paint1_linear_6085_80203" x1="22.0878" y1="8.90131" x2="0.99991" y2="8.92833" gradientUnits="userSpaceOnUse">
<stop stop-color="#0085C0"/>
<stop offset="1" stop-color="#234895"/>
</linearGradient>
</defs>
</svg>
