<svg width="23" height="22" viewBox="0 0 23 22" fill="none" xmlns="http://www.w3.org/2000/svg">
<path d="M7.23446 13.3851C7.34352 13.4217 7.4647 13.4462 7.57376 13.4462C7.81612 13.4462 8.05848 13.3484 8.22814 13.1651L8.23056 13.1627C8.31538 13.0771 11.0965 10.2153 15.1354 9.82912V12.5297C15.1354 12.8963 15.3414 13.2262 15.6807 13.3728C16.0079 13.5073 16.3957 13.4462 16.6623 13.1896L22.7213 7.38517C22.9031 7.21409 23 6.96969 23 6.7253C23 6.4809 22.9031 6.23651 22.7213 6.06543L16.6623 0.261046C16.5354 0.134667 16.3741 0.0492852 16.1989 0.0158101C16.0237 -0.0176651 15.8426 0.00228615 15.6787 0.0731147C15.5149 0.143943 15.3756 0.262433 15.2788 0.413446C15.1821 0.564459 15.1321 0.741139 15.1354 0.920913V3.70702C12.6876 3.86588 10.7002 4.69682 9.23393 6.18763C6.67703 8.766 6.66491 12.383 6.66491 12.5297C6.66491 12.9085 6.89515 13.2384 7.23446 13.3851ZM10.9062 2.14289C10.9062 1.89982 10.8105 1.66671 10.64 1.49484C10.4696 1.32297 10.2384 1.22641 9.99737 1.22641H6.96786C5.92334 1.22641 4.92161 1.64482 4.18302 2.38961C3.44444 3.1344 3.0295 4.14454 3.0295 5.19783V14.9736C3.0295 16.0269 3.44444 17.0371 4.18302 17.7819C4.92161 18.5266 5.92334 18.9451 6.96786 18.9451H16.6623C17.7068 18.9451 18.7085 18.5266 19.4471 17.7819C20.1857 17.0371 20.6006 16.0269 20.6006 14.9736V14.3626C20.6006 14.1196 20.5049 13.8865 20.3344 13.7146C20.164 13.5427 19.9328 13.4462 19.6918 13.4462C19.4507 13.4462 19.2196 13.5427 19.0491 13.7146C18.8787 13.8865 18.7829 14.1196 18.7829 14.3626V14.9736C18.7829 15.5408 18.5595 16.0847 18.1618 16.4858C17.7641 16.8868 17.2247 17.1121 16.6623 17.1121H6.96786C6.40543 17.1121 5.86603 16.8868 5.46833 16.4858C5.07063 16.0847 4.84721 15.5408 4.84721 14.9736V5.19783C4.84721 4.0174 5.79726 3.05937 6.96786 3.05937H9.99737C10.2384 3.05937 10.4696 2.96281 10.64 2.79094C10.8105 2.61907 10.9062 2.38596 10.9062 2.14289ZM1.8177 5.19783C1.8177 5.09763 1.82053 4.99865 1.82619 4.90089C1.26662 5.25944 0.805863 5.75463 0.486629 6.34056C0.167396 6.9265 1.4948e-05 7.58422 0 8.25277V14.9736C0 16.8371 0.734112 18.6243 2.04084 19.942C3.34757 21.2597 5.11987 22 6.96786 22H13.6328C14.296 22.0002 14.9484 21.8315 15.5297 21.5096C16.111 21.1877 16.6023 20.7229 16.958 20.1585C16.8602 20.1642 16.7616 20.167 16.6623 20.167H6.96786C5.60195 20.167 4.29199 19.6199 3.32615 18.6459C2.36031 17.672 1.8177 16.351 1.8177 14.9736V5.19783Z" fill="url(#paint0_linear_5999_68594)"/>
<defs>
<linearGradient id="paint0_linear_5999_68594" x1="40.4227" y1="10.865" x2="-0.000110225" y2="10.9372" gradientUnits="userSpaceOnUse">
<stop stop-color="#0085C0"/>
<stop offset="1" stop-color="#234895"/>
</linearGradient>
</defs>
</svg>
