<svg width="27" height="24" viewBox="0 0 27 24" fill="none" xmlns="http://www.w3.org/2000/svg">
<path d="M4.13178 10.7778L1.68714 8.33334C1.68714 8.33334 0.831874 11.2225 1.0297 12.9645C1.22751 14.7064 3.07625 16.0176 4.74255 15.0556C6.40887 14.0936 25.5207 2.22222 25.5207 2.22222L20.0207 1L4.13178 10.7778Z" fill="white" stroke="#EAE9E9" stroke-width="1.5" stroke-linecap="round" stroke-linejoin="round"/>
<path d="M14.5205 4.0575L5.23034 3.07031L3.52051 4.0575L7.79823 8.33522" fill="white"/>
<path d="M14.5205 4.0575L5.23034 3.07031L3.52051 4.0575L7.79823 8.33522" stroke="#EAE9E9" stroke-width="1.5" stroke-linecap="round" stroke-linejoin="round"/>
<path d="M16.3536 23L13.9092 19.9444H24.2981V17.5" fill="white"/>
<path d="M16.3536 23L13.9092 19.9444H24.2981V17.5" stroke="#EAE9E9" stroke-width="1.5" stroke-linecap="round" stroke-linejoin="round"/>
<path d="M18.1866 13.2188L20.6311 16.2743H10.2422V18.7188" fill="white"/>
<path d="M18.1866 13.2188L20.6311 16.2743H10.2422V18.7188" stroke="#EAE9E9" stroke-width="1.5" stroke-linecap="round" stroke-linejoin="round"/>
</svg>
