<svg width="24" height="27" viewBox="0 0 24 27" fill="none" xmlns="http://www.w3.org/2000/svg">
<path d="M18.875 3.08333C18.875 3.63587 18.6577 4.16577 18.2709 4.55647C17.8841 4.94717 17.3595 5.16667 16.8125 5.16667C16.2655 5.16667 15.7409 4.94717 15.3541 4.55647C14.9673 4.16577 14.75 3.63587 14.75 3.08333C14.75 2.5308 14.9673 2.0009 15.3541 1.61019C15.7409 1.21949 16.2655 1 16.8125 1C17.3595 1 17.8841 1.21949 18.2709 1.61019C18.6577 2.0009 18.875 2.5308 18.875 3.08333ZM16.125 26L15.212 22.3667C14.9083 21.1603 14.2829 20.0612 13.4039 19.1889L11.3125 17.1111M3.75 12.3236C5.125 9.5875 7.23975 8 12 7.94444L3.75 12.3236ZM12 7.94444C12.3011 7.94028 12.748 7.93889 13.1962 7.93889C13.8906 7.93889 14.2371 7.93889 14.5135 8.06944C14.7899 8.2 15.0745 8.54167 15.641 9.22778C15.8032 9.42222 15.971 9.59861 16.125 9.71667M12 7.94444L10.2537 10.6639C9.29537 12.1583 8.8155 12.9069 8.79625 13.6917C8.78812 14.0415 8.8455 14.3897 8.96538 14.7181C9.2335 15.4542 9.92788 16.0056 11.3125 17.1083M16.125 9.71806C17.7131 10.9208 20.1991 11.4042 23 8.21944L16.125 9.71806ZM16.125 9.71806L11.3125 17.1097L16.125 9.71806ZM1 21.4583L1.93225 21.6833C4.30962 22.2528 6.77913 21.1611 7.875 19.0556" fill="white"/>
<path d="M16.125 26L15.212 22.3667C14.9083 21.1603 14.2829 20.0612 13.4039 19.1889L11.3125 17.1111M3.75 12.3236C5.125 9.5875 7.23975 8 12 7.94444M12 7.94444C12.3011 7.94028 12.748 7.93889 13.1962 7.93889C13.8906 7.93889 14.2371 7.93889 14.5135 8.06944C14.7899 8.2 15.0745 8.54167 15.641 9.22778C15.8032 9.42222 15.971 9.59861 16.125 9.71667M12 7.94444L10.2537 10.6639C9.29537 12.1583 8.8155 12.9069 8.79625 13.6917C8.78812 14.0415 8.8455 14.3897 8.96538 14.7181C9.2335 15.4542 9.92788 16.0056 11.3125 17.1083M23 8.21944C20.1991 11.4042 17.7131 10.9208 16.125 9.71806L11.3125 17.1097M1 21.4583L1.93225 21.6833C4.30962 22.2528 6.77913 21.1611 7.875 19.0556M18.875 3.08333C18.875 3.63587 18.6577 4.16577 18.2709 4.55647C17.8841 4.94717 17.3595 5.16667 16.8125 5.16667C16.2655 5.16667 15.7409 4.94717 15.3541 4.55647C14.9673 4.16577 14.75 3.63587 14.75 3.08333C14.75 2.5308 14.9673 2.0009 15.3541 1.61019C15.7409 1.21949 16.2655 1 16.8125 1C17.3595 1 17.8841 1.21949 18.2709 1.61019C18.6577 2.0009 18.875 2.5308 18.875 3.08333Z" stroke="white" stroke-width="2" stroke-linecap="round" stroke-linejoin="round"/>
</svg>
