<svg width="26" height="20" viewBox="0 0 26 20" fill="none" xmlns="http://www.w3.org/2000/svg">
<path d="M0.273438 1.81818C0.273437 1.33597 0.464995 0.873509 0.80597 0.532533C1.14695 0.191558 1.60941 0 2.09162 0H11.6625C11.9446 1.91709e-05 12.2229 0.0656909 12.4753 0.191819L13.0971 0.502728C13.3494 0.628834 13.6277 0.694484 13.9098 0.694484C14.1919 0.694484 14.4702 0.628834 14.7225 0.502728L15.3443 0.191819C15.5967 0.0656909 15.875 1.91709e-05 16.1571 0H23.9098C24.392 0 24.8545 0.191558 25.1954 0.532533C25.5364 0.873509 25.728 1.33597 25.728 1.81818V15C25.728 15.4822 25.5364 15.9447 25.1954 16.2856C24.8545 16.6266 24.392 16.8182 23.9098 16.8182H2.09162C1.60941 16.8182 1.14695 16.6266 0.80597 16.2856C0.464995 15.9447 0.273438 15.4822 0.273438 15V1.81818Z" fill="#FAF7F7"/>
<path d="M22.092 8.18466C22.092 9.26964 21.661 10.3102 20.8938 11.0774C20.1266 11.8446 19.086 12.2756 18.0011 12.2756C16.9161 12.2756 15.8756 11.8446 15.1084 11.0774C14.3412 10.3102 13.9102 9.26964 13.9102 8.18466C13.9102 7.09968 14.3412 6.05914 15.1084 5.29195C15.8756 4.52476 16.9161 4.09375 18.0011 4.09375C19.086 4.09375 20.1266 4.52476 20.8938 5.29195C21.661 6.05914 22.092 7.09968 22.092 8.18466Z" fill="#9B9B9B"/>
<path d="M1.18262 2.72443C1.18262 2.24222 1.37418 1.77976 1.71515 1.43878C2.05613 1.09781 2.51859 0.90625 3.0008 0.90625H23.0008C23.483 0.90625 23.9455 1.09781 24.2864 1.43878C24.6274 1.77976 24.819 2.24222 24.819 2.72443V13.6335C24.819 14.1157 24.6274 14.5782 24.2864 14.9192C23.9455 15.2601 23.483 15.4517 23.0008 15.4517H3.0008C2.51859 15.4517 2.05613 15.2601 1.71515 14.9192C1.37418 14.5782 1.18262 14.1157 1.18262 13.6335V2.72443ZM3.0008 1.81534C2.75969 1.81534 2.52846 1.91112 2.35797 2.08161C2.18749 2.2521 2.09171 2.48333 2.09171 2.72443V13.6335C2.09171 13.8746 2.18749 14.1059 2.35797 14.2763C2.52846 14.4468 2.75969 14.5426 3.0008 14.5426H23.0008C23.2419 14.5426 23.4731 14.4468 23.6436 14.2763C23.8141 14.1059 23.9099 13.8746 23.9099 13.6335V2.72443C23.9099 2.48333 23.8141 2.2521 23.6436 2.08161C23.4731 1.91112 23.2419 1.81534 23.0008 1.81534H3.0008Z" fill="#9B9B9B"/>
<path d="M23.9098 16.8651C24.384 16.8651 24.8433 16.7198 25.228 16.4538V18.1832C25.228 18.5328 25.0891 18.8681 24.8419 19.1153L25.1954 19.4689L24.8419 19.1153C24.5947 19.3625 24.2594 19.5014 23.9098 19.5014H15.846L14.1334 18.6451L13.9098 18.5333L13.6862 18.6451L11.9736 19.5014H2.09162C1.74202 19.5014 1.40673 19.3625 1.15952 19.1153C0.912317 18.8681 0.773438 18.5328 0.773438 18.1832V16.4538C1.15817 16.7198 1.6174 16.8651 2.09162 16.8651H23.9098Z" fill="#FDFDFD" stroke="#C8C8C8"/>
<path d="M12.2168 17.1477V0.125H15.6032V17.1477H12.2168Z" fill="white" stroke="#C8C3C3" stroke-width="0.25"/>
<path d="M15.7282 16.3672H12.0918V20.0036H15.7282V16.3672Z" fill="#FAFAFA"/>
<path d="M5.21609 3.86647C5.1575 3.7611 5.05946 3.68333 4.94353 3.65025C4.8276 3.61718 4.70327 3.63151 4.59791 3.6901C4.49255 3.74869 4.41477 3.84674 4.3817 3.96267C4.34863 4.0786 4.36296 4.20292 4.42155 4.30828L6.57155 8.17828H4.81882C4.69827 8.17828 4.58265 8.22617 4.49741 8.31142C4.41216 8.39666 4.36428 8.51228 4.36428 8.63283C4.36428 8.75338 4.41216 8.869 4.49741 8.95424C4.58265 9.03949 4.69827 9.08738 4.81882 9.08738H6.637V9.99647H4.81882C4.69827 9.99647 4.58265 10.0444 4.49741 10.1296C4.41216 10.2148 4.36428 10.3305 4.36428 10.451C4.36428 10.5716 4.41216 10.6872 4.49741 10.7724C4.58265 10.8577 4.69827 10.9056 4.81882 10.9056H6.637V12.2692C6.637 12.3897 6.68489 12.5054 6.77014 12.5906C6.85538 12.6758 6.97099 12.7237 7.09155 12.7237C7.2121 12.7237 7.32772 12.6758 7.41296 12.5906C7.4982 12.5054 7.54609 12.3897 7.54609 12.2692V10.9056H9.36428C9.48483 10.9056 9.60044 10.8577 9.68569 10.7724C9.77093 10.6872 9.81882 10.5716 9.81882 10.451C9.81882 10.3305 9.77093 10.2148 9.68569 10.1296C9.60044 10.0444 9.48483 9.99647 9.36428 9.99647H7.54609V9.08738H9.36428C9.48483 9.08738 9.60044 9.03949 9.68569 8.95424C9.77093 8.869 9.81882 8.75338 9.81882 8.63283C9.81882 8.51228 9.77093 8.39666 9.68569 8.31142C9.60044 8.22617 9.48483 8.17828 9.36428 8.17828H7.61155L9.76155 4.30828C9.79056 4.25611 9.80901 4.19874 9.81585 4.13944C9.82268 4.08014 9.81777 4.02007 9.8014 3.96267C9.78502 3.90526 9.7575 3.85165 9.7204 3.80488C9.6833 3.75811 9.63735 3.71911 9.58518 3.6901C9.53301 3.66109 9.47564 3.64264 9.41634 3.63581C9.35704 3.62897 9.29697 3.63388 9.23957 3.65025C9.18216 3.66663 9.12855 3.69416 9.08178 3.73125C9.03501 3.76835 8.99601 3.8143 8.967 3.86647L7.09155 7.24192L5.21609 3.86647Z" fill="#C8C3C3"/>
</svg>
