<svg width="32" height="24" viewBox="0 0 32 24" fill="none" xmlns="http://www.w3.org/2000/svg">
<g clip-path="url(#clip0_8543_99880)">
<path d="M18.5889 18.2247H20.4475V20.3157H18.5889V18.2247ZM25.0138 18.2247H26.8724V20.3157H25.0138V18.2247ZM23.4546 10.8087V8.71875H20.8786V9.73675L21.8395 10.8097L23.4546 10.8087Z" fill="white"/>
<path d="M29.8238 22.109V17.7H30.4149L30.9642 17.089L24.4558 9.767H23.6478V11.036H21.7544L20.6264 9.767H17.5011L10.9998 17.081L11.5491 17.699H12.4193V22.108H10.7207C8.18023 19.374 7.50467 13.173 7.742 8.56L7.78378 8.466H7.80422C8.91534 8.466 9.90023 9.072 10.5136 10.006L10.5198 10.016C10.982 10.719 11.2602 11.604 11.2602 12.561C11.2602 13.221 11.1287 13.846 10.8922 14.405L10.902 14.379C11.3981 14.2361 11.8592 13.9695 12.2513 13.599L12.246 13.604C12.6543 13.2042 12.9815 12.7105 13.2055 12.1562C13.4296 11.6019 13.5452 10.9999 13.5447 10.391C13.5447 9.436 13.2656 8.55501 12.7944 7.84501L12.8016 7.85601C12.3973 7.22185 11.8257 6.74723 11.1679 6.49965C10.5101 6.25208 9.7996 6.24415 9.13756 6.47701L9.16067 6.47001C9.39622 6.30501 9.66734 6.15901 9.95267 6.04801L9.98111 6.038C10.3689 5.87686 10.7793 5.79523 11.1927 5.79701C12.1553 5.79701 13.0273 6.23001 13.6647 6.93101L13.6638 6.93001C13.7582 6.36912 13.7299 5.79079 13.5811 5.24501L13.5873 5.27C13.4399 4.78362 13.2061 4.33608 12.9 3.95465C12.5939 3.57322 12.222 3.26588 11.807 3.05135C11.3919 2.83683 10.9424 2.7196 10.4857 2.70682C10.0291 2.69404 9.57493 2.78596 9.15089 2.977L9.17311 2.968C8.95863 3.05118 8.75003 3.15247 8.54911 3.271L8.57489 3.257C8.51437 2.94426 8.42469 2.63958 8.30734 2.348L8.318 2.377C7.53578 0.404005 5.742 -0.527995 4.30823 0.287005C3.92102 0.509696 3.58833 0.835907 3.33934 1.237L3.334 1.247C3.83863 1.30271 4.32472 1.4902 4.75357 1.79453C5.18243 2.09887 5.54219 2.51165 5.80423 3L5.81223 3.016C5.47961 2.82867 5.12757 2.6886 4.76423 2.599L4.734 2.593C2.52956 2.06 0.431781 3.40701 0.0557814 5.60801C-0.0446837 6.21179 -0.0114073 6.83412 0.15267 7.42L0.146448 7.394C0.639387 6.76443 1.27737 6.30033 1.98997 6.05292C2.70258 5.80552 3.46209 5.78444 4.18467 5.992L4.15623 5.985C4.51978 6.071 4.84156 6.195 5.14289 6.35801L5.11711 6.34501C4.39594 6.23692 3.6625 6.3733 3.0106 6.7367C2.3587 7.1001 1.81797 7.674 1.45756 8.385L1.44778 8.405C1.07149 9.11815 0.873971 9.93268 0.876226 10.762C0.876226 12.33 1.56689 13.716 2.62556 14.556L2.63889 14.566C3.09444 14.9101 3.61419 15.1318 4.158 15.214L4.17667 15.216C3.78449 14.485 3.57819 13.6469 3.58023 12.793C3.58023 11.92 3.79089 11.102 4.15889 10.401L4.14823 10.423C4.42161 9.88764 4.79646 9.4266 5.24613 9.07264C5.6958 8.71868 6.20926 8.48049 6.75 8.375L6.77223 8.371C5.51267 14.824 5.16423 19.32 6.20334 22.107H3.17578V23.987H31.7518V22.107H29.8238V22.109ZM22.7571 17.802H29.1269V22.109H22.7571V17.802ZM13.1029 16.948L17.5029 11.998L21.9029 16.948V22.109H17.0718V18.225H14.6282V22.109H13.0976V16.948H13.1029Z" fill="white"/>
</g>
<defs>
<clipPath id="clip0_8543_99880">
<rect width="32" height="24" fill="white"/>
</clipPath>
</defs>
</svg>
