<svg width="24" height="23" viewBox="0 0 24 23" fill="none" xmlns="http://www.w3.org/2000/svg">
<path d="M8.84211 3.83333H13.8947V2.06361C13.8947 1.83446 13.8219 1.64621 13.6762 1.49884C13.5305 1.35146 13.3444 1.27778 13.1179 1.27778H9.61895C9.39242 1.27778 9.20632 1.35146 9.06063 1.49884C8.91495 1.64621 8.84211 1.83446 8.84211 2.06361V3.83333ZM18.9474 23C17.5402 23 16.3465 22.5042 15.3663 21.5127C14.3853 20.5194 13.8947 19.3115 13.8947 17.8889C13.8947 16.4663 14.3853 15.2588 15.3663 14.2664C16.3474 13.274 17.541 12.7778 18.9474 12.7778C20.3537 12.7778 21.5478 13.274 22.5297 14.2664C23.5116 15.2588 24.0017 16.4663 24 17.8889C23.9983 19.3115 23.5082 20.5194 22.5297 21.5127C21.5512 22.5059 20.357 23.0017 18.9474 23ZM2.04 20.4444C1.45895 20.4444 0.973476 20.2477 0.583581 19.8541C0.193687 19.4606 -0.000839383 18.969 2.72232e-06 18.3796V5.89822C2.72232e-06 5.30959 0.19495 4.8185 0.584845 4.42495C0.974739 4.03139 1.45979 3.83419 2.04 3.83333H7.57895V2.06361C7.57895 1.47584 7.7739 0.984743 8.16379 0.590336C8.55369 0.195928 9.03916 -0.000849098 9.62021 2.75383e-06H13.1179C13.6989 2.75383e-06 14.1844 0.19678 14.5743 0.590336C14.9642 0.983891 15.1587 1.47498 15.1579 2.06361V3.83333H20.6968C21.2779 3.83333 21.7629 4.03054 22.152 4.42495C22.541 4.81935 22.736 5.31045 22.7368 5.89822V11.2623C22.1617 10.9097 21.552 10.6481 20.9078 10.4778C20.2636 10.3074 19.6101 10.2222 18.9474 10.2222C16.8455 10.2222 15.0568 10.9684 13.5815 12.4609C12.1061 13.9533 11.3684 15.7627 11.3684 17.8889C11.3684 18.3199 11.4046 18.7497 11.4771 19.1782C11.5495 19.6066 11.6598 20.0287 11.808 20.4444H2.04ZM18.9474 20.9849C19.1158 20.9849 19.2547 20.9296 19.3642 20.8188C19.4737 20.7081 19.5293 20.5671 19.5309 20.3959C19.5326 20.2247 19.4775 20.0837 19.3655 19.9729C19.2535 19.8622 19.1141 19.8064 18.9474 19.8056C18.7806 19.8047 18.6417 19.8601 18.5305 19.9717C18.4194 20.0833 18.3638 20.2247 18.3638 20.3959C18.3638 20.5671 18.4189 20.7077 18.5293 20.8176C18.6396 20.9274 18.7789 20.9832 18.9474 20.9849ZM18.461 18.6262H19.4337V14.7928H18.461V18.6262Z" fill="white"/>
</svg>
