<svg width="24" height="25" viewBox="0 0 24 25" fill="none" xmlns="http://www.w3.org/2000/svg">
<path fill-rule="evenodd" clip-rule="evenodd" d="M11.9432 0C10.8865 0 10.0061 5.38596e-08 9.30789 0.0963856C8.56972 0.19759 7.90325 0.421687 7.36842 0.96988C6.83243 1.51928 6.6138 2.20241 6.51506 2.95783C6.42103 3.6747 6.42103 4.57831 6.42103 5.66024V5.75422C4.04547 5.83373 2.6185 6.11807 1.62761 7.13494C0.25 8.54578 0.25 10.8181 0.25 15.3614C0.25 19.9048 0.25 22.1771 1.62761 23.588C3.00404 25 5.22091 25 9.65347 25H14.3552C18.7878 25 21.0046 25 22.3811 23.588C23.7587 22.1771 23.7587 19.9048 23.7587 15.3614C23.7587 10.8181 23.7587 8.54578 22.3811 7.13494C21.3902 6.11807 19.9632 5.83373 17.5876 5.75422V5.66024C17.5876 4.57831 17.5876 3.6747 17.4936 2.95904C17.3949 2.20241 17.1762 1.51928 16.6402 0.971084C16.1054 0.421687 15.4389 0.19759 14.7008 0.0963856C14.0026 5.38596e-08 13.121 0 12.0655 0H11.9432ZM15.8245 5.7253V5.72289C15.8245 4.56145 15.8221 3.78072 15.7469 3.1988C15.6729 2.64337 15.5471 2.40482 15.3943 2.24819C15.2415 2.09157 15.0087 1.96265 14.4657 1.88675C13.8991 1.80964 13.1375 1.80723 12.0043 1.80723C10.8712 1.80723 10.1095 1.80964 9.5418 1.88795C8.99993 1.96265 8.76719 2.09157 8.61438 2.2494C8.46158 2.40602 8.33581 2.64337 8.26175 3.1988C8.1877 3.78072 8.18418 4.56145 8.18418 5.72289V5.7253C8.64495 5.72289 9.13393 5.72289 9.65347 5.72289H14.3552C14.8747 5.72289 15.3637 5.72289 15.8245 5.7253ZM16.7061 15.3614C16.7061 16.6396 16.2107 17.8654 15.329 18.7692C14.4472 19.673 13.2513 20.1807 12.0043 20.1807C10.7574 20.1807 9.56145 19.673 8.67971 18.7692C7.79796 17.8654 7.3026 16.6396 7.3026 15.3614C7.3026 14.0833 7.79796 12.8575 8.67971 11.9537C9.56145 11.0499 10.7574 10.5422 12.0043 10.5422C13.2513 10.5422 14.4472 11.0499 15.329 11.9537C16.2107 12.8575 16.7061 14.0833 16.7061 15.3614Z" fill="white"/>
</svg>
