<svg width="27" height="24" viewBox="0 0 27 24" fill="none" xmlns="http://www.w3.org/2000/svg">
<path d="M8.52632 13.8098C11.3613 13.8098 13.5 11.6025 13.5 8.67661C13.5 5.75067 11.3613 3.54339 8.52632 3.54339C5.69132 3.54339 3.55263 5.75067 3.55263 8.67661C3.55263 11.6025 5.69132 13.8098 8.52632 13.8098ZM9.94737 15.2002H7.10526C3.18742 15.2002 0 18.4899 0 22.5334V24H17.0526V22.5334C17.0526 18.4899 13.8652 15.2002 9.94737 15.2002ZM23.2541 0L21.2447 2.07382C23.1219 4.01418 24.1579 6.59252 24.1579 9.33366C24.1579 12.0748 23.1219 14.6531 21.2447 16.5935L23.2541 18.6673C25.6699 16.1726 27 12.858 27 9.33366C27 5.80934 25.6699 2.49474 23.2541 0Z" fill="white"/>
<path d="M19.234 4.14844L17.2246 6.22519C18.0303 7.05384 18.4737 8.15821 18.4737 9.33446C18.4737 10.5107 18.0303 11.6151 17.2246 12.4437L19.234 14.5205C20.5755 13.136 21.3158 11.2953 21.3158 9.33446C21.3158 7.37357 20.5755 5.53294 19.234 4.14844Z" fill="white"/>
</svg>
