<svg width="26" height="26" viewBox="0 0 26 26" fill="none" xmlns="http://www.w3.org/2000/svg">
<path d="M1.51775 6.69925L12.8184 1.06324C12.8708 1.03709 12.9285 1.02346 12.9871 1.02344C13.0457 1.02341 13.1035 1.03698 13.1559 1.06309L24.4791 6.6991C24.837 6.87724 24.7102 7.41638 24.3105 7.41638H1.68665C1.28705 7.41638 1.16015 6.87759 1.51775 6.69925ZM24.5172 7.83456H1.48281C1.38584 7.83456 1.29284 7.87309 1.22428 7.94165C1.15571 8.01022 1.11719 8.10322 1.11719 8.20019V11.1793C1.11719 11.2763 1.15571 11.3693 1.22428 11.4379C1.29284 11.5064 1.38584 11.5449 1.48281 11.5449H2.25977V22.6873C2.25977 23.0912 2.58715 23.4186 2.99102 23.4186H23.009C23.4128 23.4186 23.7402 23.0912 23.7402 22.6873V11.5449H24.5172C24.6142 11.5449 24.7072 11.5064 24.7757 11.4379C24.8443 11.3693 24.8828 11.2763 24.8828 11.1793V8.20019C24.8828 8.10322 24.8443 8.01022 24.7757 7.94165C24.7072 7.87309 24.6142 7.83456 24.5172 7.83456Z" fill="white"/>
<path d="M7.05778 22.6897H4.75338V10.4132H7.05778V22.6897ZM21.2227 10.4132H18.9182V22.6897H21.2227V10.4132ZM24.8634 6.89082L13.1848 1.07794C13.1231 1.04721 13.0551 1.03122 12.9861 1.03125C12.9171 1.03128 12.8491 1.04731 12.7874 1.0781L1.13217 6.89097C0.711139 7.10096 0.860589 7.73537 1.33108 7.73537H1.44432C1.51314 7.73536 1.58103 7.71942 1.64267 7.6888L12.8023 2.14217C12.8636 2.11166 12.9312 2.09572 12.9997 2.09559C13.0683 2.09546 13.1359 2.11114 13.1974 2.1414L24.468 7.68956C24.5293 7.71971 24.5966 7.73538 24.6649 7.73537C25.1355 7.73542 25.2847 7.10055 24.8634 6.89082Z" fill="#F1F1F1"/>
<path d="M25.2027 6.96094H0.797266C0.700296 6.96094 0.607298 6.99946 0.53873 7.06803C0.470162 7.13659 0.431641 7.22959 0.431641 7.32656V8.33757C0.431641 8.43454 0.470162 8.52753 0.53873 8.5961C0.607298 8.66467 0.700296 8.70319 0.797266 8.70319H25.2027C25.2997 8.70319 25.3927 8.66467 25.4613 8.5961C25.5298 8.52753 25.5684 8.43454 25.5684 8.33757V7.32656C25.5684 7.22959 25.5298 7.13659 25.4613 7.06803C25.3927 6.99946 25.2997 6.96094 25.2027 6.96094ZM25.2027 10.3712H0.797266C0.700296 10.3712 0.607298 10.4097 0.53873 10.4782C0.470162 10.5468 0.431641 10.6398 0.431641 10.7368V11.7478C0.431641 11.8448 0.470162 11.9377 0.53873 12.0063C0.607298 12.0749 0.700296 12.1134 0.797266 12.1134H9.10249V22.6848H2.1253C1.88541 22.6848 1.66319 22.811 1.54025 23.0171L0.614758 24.5682C0.343789 25.0223 0.671023 25.5985 1.19981 25.5985H24.8002C25.329 25.5985 25.6562 25.0223 25.3852 24.5682L24.4598 23.0171C24.3993 22.9158 24.3136 22.8319 24.2111 22.7737C24.1085 22.7155 23.9926 22.6848 23.8747 22.6848H16.8745V12.1134H25.2027C25.2997 12.1134 25.3927 12.0749 25.4613 12.0063C25.5298 11.9377 25.5684 11.8448 25.5684 11.7478V10.7368C25.5684 10.6398 25.5298 10.5468 25.4613 10.4782C25.3927 10.4097 25.2997 10.3712 25.2027 10.3712Z" fill="#D8D8D8"/>
<path d="M9.10156 22.6898L16.8711 22.6797L16.8736 24.5769L9.10405 24.587L9.10156 22.6898Z" fill="#C8CACB"/>
<path d="M18.0156 25.6026H7.96094V24.5531C7.96094 24.4562 7.99946 24.3632 8.06803 24.2946C8.1366 24.226 8.22959 24.1875 8.32656 24.1875H17.65C17.747 24.1875 17.84 24.226 17.9085 24.2946C17.9771 24.3632 18.0156 24.4562 18.0156 24.5531V25.6026Z" fill="#EBECED"/>
<path d="M15.72 22.686H10.2568V17.6935C10.2568 16.0161 11.4798 14.6562 12.9885 14.6562C14.4971 14.6562 15.7201 16.0161 15.7201 17.6935V22.686H15.72Z" fill="white"/>
</svg>
