<svg width="22" height="23" viewBox="0 0 22 23" fill="none" xmlns="http://www.w3.org/2000/svg">
<path d="M0 20.6382V6.48438H22V20.6382C22 21.9357 20.9579 22.9972 19.6842 22.9972H2.31579C1.04211 22.9972 0 21.9357 0 20.6382Z" fill="white"/>
<path d="M22 4.1246V7.66306H0V4.1246C0 2.82716 1.04211 1.76562 2.31579 1.76562H19.6842C20.9579 1.76562 22 2.82716 22 4.1246Z" fill="#F1F1F1"/>
<path d="M16.2105 5.89784C17.1697 5.89784 17.9473 5.10573 17.9473 4.12861C17.9473 3.15149 17.1697 2.35938 16.2105 2.35938C15.2512 2.35938 14.4736 3.15149 14.4736 4.12861C14.4736 5.10573 15.2512 5.89784 16.2105 5.89784Z" fill="#BDBDBD"/>
<path d="M5.78958 5.89784C6.74881 5.89784 7.52642 5.10573 7.52642 4.12861C7.52642 3.15149 6.74881 2.35938 5.78958 2.35938C4.83035 2.35938 4.05273 3.15149 4.05273 4.12861C4.05273 5.10573 4.83035 5.89784 5.78958 5.89784Z" fill="#BDBDBD"/>
<path d="M16.2108 0C15.5739 0 15.0529 0.530769 15.0529 1.17949V4.1282C15.0529 4.77692 15.5739 5.30769 16.2108 5.30769C16.8476 5.30769 17.3687 4.77692 17.3687 4.1282V1.17949C17.3687 0.530769 16.8476 0 16.2108 0ZM5.78973 0C5.15289 0 4.63184 0.530769 4.63184 1.17949V4.1282C4.63184 4.77692 5.15289 5.30769 5.78973 5.30769C6.42657 5.30769 6.94763 4.77692 6.94763 4.1282V1.17949C6.94763 0.530769 6.42657 0 5.78973 0Z" fill="#C2C2C2"/>
<path d="M9.95801 19.0465C9.95801 18.9286 9.95801 18.7516 10.0159 18.6337C10.0738 18.5157 10.1317 18.3978 10.2475 18.3388C10.3633 18.2798 10.4212 18.1619 10.537 18.1619C10.6527 18.1029 10.8264 18.1029 10.9422 18.1029C11.058 18.1029 11.2317 18.1029 11.3475 18.1619L11.6948 18.3388C11.8106 18.3978 11.8685 18.5157 11.9264 18.6337C11.9843 18.7516 11.9843 18.8696 11.9843 19.0465C11.9843 19.1645 11.9843 19.3414 11.9264 19.4593C11.8685 19.5773 11.8106 19.6952 11.6948 19.7542C11.5791 19.8132 11.5212 19.9311 11.3475 19.9311C11.1738 19.9311 11.1738 20.0491 11.0001 20.0491C10.8264 20.0491 10.7106 20.0491 10.5948 19.9901C10.4791 19.9311 10.3633 19.8722 10.3054 19.8132C10.1896 19.7542 10.1317 19.6363 10.0738 19.5183C10.0159 19.3414 9.95801 19.2234 9.95801 19.0465ZM11.7527 16.5106H10.2475L10.0159 10.0234H11.9264L11.7527 16.5106Z" fill="url(#paint0_linear_8543_27496)"/>
<defs>
<linearGradient id="paint0_linear_8543_27496" x1="13.5193" y1="14.9748" x2="9.95799" y2="14.976" gradientUnits="userSpaceOnUse">
<stop stop-color="#0085C0"/>
<stop offset="1" stop-color="#234895"/>
</linearGradient>
</defs>
</svg>
